<svg width="21" height="20" viewBox="0 0 21 20" fill="none" xmlns="http://www.w3.org/2000/svg">
<path d="M13.0658 5.00042L13.265 5.01042C14.4567 5.09126 16.1267 5.85459 17.0217 7.16542C17.0872 7.26138 17.1319 7.36997 17.1529 7.48422C17.174 7.59848 17.1709 7.71587 17.1439 7.82887C17.1169 7.94187 17.0666 8.04798 16.9962 8.14038C16.9258 8.23278 16.8368 8.30943 16.735 8.36542C16.6933 8.38876 16.425 8.49709 16.3208 8.54626C16.1086 8.6453 15.907 8.76564 15.7192 8.90542C15.2075 9.28959 14.9292 9.74626 14.9342 10.3171C14.9425 11.0546 15.2167 11.5288 15.69 11.8554C15.8633 11.9746 16.0533 12.0663 16.245 12.1304C16.35 12.1663 16.6 12.2271 16.615 12.2321C16.7766 12.2901 16.9164 12.3967 17.0151 12.5372C17.1139 12.6777 17.1668 12.8453 17.1667 13.0171C17.1667 15.2013 14.6333 18.3346 12.7617 18.3346C12.1033 18.3346 11.7017 18.2588 11.1092 18.0721L11.0275 18.0463C10.6417 17.9246 10.4425 17.8863 10.0833 17.8863C9.65 17.8863 9.36417 17.9363 8.81833 18.0838L8.65417 18.1279C8.175 18.2554 7.85083 18.3163 7.40417 18.3346C5.11333 18.3346 3 14.0904 3 10.7746C3 7.54959 4.48833 5.00792 7.405 5.00792C7.6525 5.00792 7.90333 5.04542 8.1625 5.11459C8.49833 5.20376 8.8075 5.33126 9.2425 5.53792C9.89833 5.84959 10.0325 5.90459 10.0833 5.90459H10.0967C10.1217 5.90209 10.2033 5.86542 10.9767 5.52376C11.8608 5.13459 12.53 4.95292 13.265 5.01042L13.065 5.00042H13.0658Z" fill="#23262E"/>
<path d="M12.1641 0.835938C12.3851 0.835938 12.597 0.923735 12.7533 1.08002C12.9096 1.2363 12.9974 1.44826 12.9974 1.66927C12.9974 2.33231 12.734 2.9682 12.2652 3.43704C11.7963 3.90588 11.1604 4.16927 10.4974 4.16927C10.2764 4.16927 10.0644 4.08147 9.90814 3.92519C9.75186 3.76891 9.66406 3.55695 9.66406 3.33594C9.66406 2.6729 9.92745 2.03701 10.3963 1.56817C10.8651 1.09933 11.501 0.835938 12.1641 0.835938Z" fill="#23262E"/>
</svg>
