<svg width="16" height="16" viewBox="0 0 16 16" fill="none" xmlns="http://www.w3.org/2000/svg">
<path d="M13.7502 4.818C13.797 4.86866 13.871 4.89205 13.9412 4.87256L14.479 4.73616C14.5998 4.70499 14.666 4.56469 14.6076 4.45557C13.9451 3.22798 12.9591 2.20304 11.7549 1.50156C11.6458 1.43921 11.5055 1.49766 11.4704 1.61848C11.4198 1.79385 11.3691 1.98091 11.3106 2.18356C11.2912 2.24981 11.3106 2.32775 11.3613 2.37841C12.3083 3.31761 12.8266 3.84762 13.7502 4.81411V4.818ZM5.51953 1.64575C5.86637 1.99649 6.22491 2.35893 6.71205 2.86165C6.76271 2.91232 6.83675 2.9318 6.9069 2.91621C8.20464 2.57327 8.91781 2.3901 10.2039 2.07444C10.2701 2.05885 10.3286 2.00429 10.3481 1.93804C10.4338 1.64575 10.5078 1.39244 10.578 1.15861C10.6053 1.05729 10.5546 0.952066 10.4572 0.920889C9.68554 0.651988 8.86325 0.5 8.00199 0.5C7.0394 0.5 6.11968 0.683165 5.27401 1.01832C5.14541 1.06898 5.11423 1.24045 5.21166 1.33788C5.31688 1.4431 5.41821 1.54833 5.51953 1.64965V1.64575ZM2.17581 7.89672L4.98562 7.17965C5.05187 7.16406 5.10643 7.1056 5.12592 7.03935C5.48056 5.73772 5.68321 5.02455 6.06123 3.7502C6.08071 3.68394 6.06122 3.606 6.01446 3.55534C5.52342 3.04092 5.16879 2.67849 4.82194 2.32775C4.62709 2.12899 4.43224 1.93414 4.22179 1.7159C4.15554 1.64965 4.05032 1.63406 3.97238 1.68473C2.38236 2.70577 1.20153 4.30359 0.733879 6.18589C0.718291 6.24435 0.733876 6.3106 0.772847 6.36126C1.13528 6.81332 1.47433 7.23032 1.98095 7.83047C2.02772 7.88893 2.10956 7.91621 2.1797 7.89672H2.17581ZM13.6567 11.3535C13.2904 10.9832 12.9162 10.6052 12.3862 10.0635C12.3862 10.0635 12.3745 10.0635 12.3707 10.0635C11.3184 10.3441 10.6481 10.5195 9.79856 10.7299C9.54525 10.7923 9.27634 10.8585 8.97627 10.9326C8.91002 10.9482 8.85156 11.0027 8.83208 11.069C8.62943 11.7549 8.48913 12.242 8.35273 12.7174C8.2514 13.0643 8.15398 13.4072 8.04096 13.8164C8.02148 13.8905 8.04876 13.9762 8.10721 14.0269C8.75413 14.5491 9.18281 14.8687 9.70502 15.2233C9.75179 15.2545 9.81414 15.2662 9.8687 15.2506C11.677 14.7868 13.2202 13.6644 14.2335 12.1563C14.2841 12.0783 14.2724 11.9731 14.2062 11.9068C14.0152 11.712 13.836 11.5327 13.6567 11.3496V11.3535ZM15.161 5.77279C15.1298 5.67536 15.0246 5.61691 14.9233 5.64419L14.1984 5.82735C14.1321 5.84294 14.0776 5.9014 14.0581 5.96765C13.6996 7.27708 13.4969 7.99025 13.1228 9.25681C13.1033 9.32306 13.1228 9.401 13.1696 9.45167C13.6528 9.96219 14.0074 10.3207 14.3504 10.6676C14.5024 10.8196 14.6505 10.9715 14.8063 11.1313C15.2467 10.1765 15.5 9.11652 15.5 7.99804C15.5 7.22252 15.3753 6.47817 15.1571 5.77279H15.161ZM5.35195 8.10716V8.09547C5.35195 8.09547 5.34805 8.09547 5.34416 8.09547C5.34026 8.09547 5.33636 8.09937 5.33247 8.09937L3.6684 8.52416L2.41353 8.84372C2.33949 8.8632 2.28492 8.92556 2.26934 8.99961C2.03551 10.1882 1.92639 10.7962 1.73543 11.8991C1.73543 11.9068 1.74323 11.9302 1.75882 11.9536C2.57331 12.9318 3.07994 13.3761 4.00356 14.1867C4.02694 14.21 4.05811 14.2178 4.0659 14.2178C5.16099 14.0775 5.76115 13.9996 6.93418 13.7424C7.00433 13.7268 7.06278 13.6722 7.08227 13.6021C7.19918 13.1812 7.30051 12.8305 7.40184 12.4719C7.53824 11.9926 7.67853 11.5054 7.86559 10.8273C7.88507 10.7611 7.86559 10.6832 7.81493 10.6325C6.84455 9.66601 6.32233 9.136 5.34416 8.11106L5.35195 8.10716Z" fill="#23262E" fill-opacity="0.7"/>
</svg>
