<svg width="20" height="20" viewBox="0 0 20 20" fill="none" xmlns="http://www.w3.org/2000/svg">
<mask id="mask0_1318_33062" style="mask-type:luminance" maskUnits="userSpaceOnUse" x="2" y="2" width="16" height="16">
<path d="M17.5 2.5H2.5V17.5H17.5V2.5Z" fill="white"/>
</mask>
<g mask="url(#mask0_1318_33062)">
<path fill-rule="evenodd" clip-rule="evenodd" d="M11.0455 9.47175H8.89957C8.70435 8.0289 7.92 6.73056 6.73211 5.88398L4.9519 4.41455C6.2492 3.25292 7.9106 2.57624 9.6525 2.5C10.4624 4.7418 10.9319 7.09164 11.0455 9.47175ZM15.7839 5.18162C14.6519 6.34416 13.9534 7.85831 13.8048 9.47194H12.159C12.0443 7.10812 11.5971 4.7721 10.8306 2.53235C12.7639 2.74094 14.5402 3.69097 15.7839 5.18162ZM17.4995 10.5444C17.4194 11.7407 17.0504 12.8998 16.4238 13.9231C15.5629 12.9874 15.0192 11.8054 14.8695 10.5444H17.4995ZM17.4994 9.47175C17.4194 8.27553 17.0503 7.11637 16.4238 6.09314C15.5659 7.02957 15.0258 8.21177 14.8802 9.47175H17.4994ZM6.74309 14.1324C7.92204 13.2801 8.69948 11.9836 8.89444 10.5446L11.0726 10.5286C10.9584 12.9086 10.4889 15.2584 9.67963 17.5003C7.89849 17.4242 6.20305 16.7167 4.89834 15.5053L6.74309 14.1324ZM12.1211 10.5446C12.0101 12.9022 11.5684 15.2327 10.8088 17.4681C12.741 17.2557 14.5159 16.3064 15.7622 14.8189C14.6309 13.6558 13.9325 12.1419 13.783 10.5286L12.1211 10.5446ZM6.07607 6.73669L4.21519 5.20291C3.20315 6.41639 2.60255 7.9183 2.49951 9.49319H7.80787C7.61717 8.38417 6.99717 7.39423 6.08144 6.73669H6.07607ZM2.49951 10.5444H7.80787H7.81325C7.61464 11.6445 6.99329 12.6239 6.08144 13.2741L4.14527 14.7221C3.1823 13.5294 2.60805 12.0717 2.49951 10.5444Z" fill="#23262E" fill-opacity="0.7"/>
</g>
</svg>
