<svg width="25" height="25" viewBox="0 0 25 25" fill="none" xmlns="http://www.w3.org/2000/svg">
<path d="M8.25 8.5V6.5C8.25 5.96957 8.46071 5.46086 8.83579 5.08579C9.21086 4.71071 9.71957 4.5 10.25 4.5H14.25C14.7804 4.5 15.2891 4.71071 15.6642 5.08579C16.0393 5.46086 16.25 5.96957 16.25 6.5V8.5" stroke="#F21818" stroke-width="1.5" stroke-linecap="round" stroke-linejoin="round"/>
<path d="M4.25 10.5C4.25 9.96957 4.46071 9.46086 4.83579 9.08579C5.21086 8.71071 5.71957 8.5 6.25 8.5H18.25C18.7804 8.5 19.2891 8.71071 19.6642 9.08579C20.0393 9.46086 20.25 9.96957 20.25 10.5V18.5C20.25 19.0304 20.0393 19.5391 19.6642 19.9142C19.2891 20.2893 18.7804 20.5 18.25 20.5H6.25C5.71957 20.5 5.21086 20.2893 4.83579 19.9142C4.46071 19.5391 4.25 19.0304 4.25 18.5V10.5Z" stroke="#F21818" stroke-width="1.5" stroke-linecap="round" stroke-linejoin="round"/>
<path d="M10.25 14.5H14.25" stroke="#F21818" stroke-width="1.5" stroke-linecap="round" stroke-linejoin="round"/>
<path d="M12.25 12.5V16.5" stroke="#F21818" stroke-width="1.5" stroke-linecap="round" stroke-linejoin="round"/>
</svg>
