<svg width="20" height="20" viewBox="0 0 20 20" fill="none" xmlns="http://www.w3.org/2000/svg">
<path d="M15.7502 6.818C15.797 6.86866 15.871 6.89205 15.9412 6.87256L16.479 6.73616C16.5998 6.70499 16.666 6.56469 16.6076 6.45557C15.9451 5.22798 14.9591 4.20304 13.7549 3.50156C13.6458 3.43921 13.5055 3.49766 13.4704 3.61848C13.4198 3.79385 13.3691 3.98091 13.3106 4.18356C13.2912 4.24981 13.3106 4.32775 13.3613 4.37841C14.3083 5.31761 14.8266 5.84762 15.7502 6.81411V6.818ZM7.51953 3.64575C7.86637 3.99649 8.22491 4.35893 8.71205 4.86165C8.76271 4.91232 8.83675 4.9318 8.9069 4.91621C10.2046 4.57327 10.9178 4.3901 12.2039 4.07444C12.2701 4.05885 12.3286 4.00429 12.3481 3.93804C12.4338 3.64575 12.5078 3.39244 12.578 3.15861C12.6053 3.05729 12.5546 2.95207 12.4572 2.92089C11.6855 2.65199 10.8632 2.5 10.002 2.5C9.0394 2.5 8.11968 2.68316 7.27401 3.01832C7.14541 3.06898 7.11423 3.24045 7.21166 3.33788C7.31688 3.4431 7.41821 3.54833 7.51953 3.64965V3.64575ZM4.17581 9.89672L6.98562 9.17965C7.05187 9.16406 7.10643 9.1056 7.12592 9.03935C7.48056 7.73772 7.68321 7.02455 8.06123 5.7502C8.08071 5.68394 8.06122 5.606 8.01446 5.55534C7.52342 5.04092 7.16879 4.67849 6.82194 4.32775C6.62709 4.12899 6.43224 3.93414 6.22179 3.7159C6.15554 3.64965 6.05032 3.63406 5.97238 3.68473C4.38236 4.70577 3.20153 6.30359 2.73388 8.18589C2.71829 8.24435 2.73388 8.3106 2.77285 8.36126C3.13528 8.81332 3.47433 9.23032 3.98095 9.83047C4.02772 9.88893 4.10956 9.91621 4.1797 9.89672H4.17581ZM15.6567 13.3535C15.2904 12.9832 14.9162 12.6052 14.3862 12.0635C14.3862 12.0635 14.3745 12.0635 14.3707 12.0635C13.3184 12.3441 12.6481 12.5195 11.7986 12.7299C11.5452 12.7923 11.2763 12.8585 10.9763 12.9326C10.91 12.9482 10.8516 13.0027 10.8321 13.069C10.6294 13.7549 10.4891 14.242 10.3527 14.7174C10.2514 15.0643 10.154 15.4072 10.041 15.8164C10.0215 15.8905 10.0488 15.9762 10.1072 16.0269C10.7541 16.5491 11.1828 16.8687 11.705 17.2233C11.7518 17.2545 11.8141 17.2662 11.8687 17.2506C13.677 16.7868 15.2202 15.6644 16.2335 14.1563C16.2841 14.0783 16.2724 13.9731 16.2062 13.9068C16.0152 13.712 15.836 13.5327 15.6567 13.3496V13.3535ZM17.161 7.77279C17.1298 7.67536 17.0246 7.61691 16.9233 7.64419L16.1984 7.82735C16.1321 7.84294 16.0776 7.9014 16.0581 7.96765C15.6996 9.27708 15.4969 9.99025 15.1228 11.2568C15.1033 11.3231 15.1228 11.401 15.1696 11.4517C15.6528 11.9622 16.0074 12.3207 16.3504 12.6676C16.5024 12.8196 16.6505 12.9715 16.8063 13.1313C17.2467 12.1765 17.5 11.1165 17.5 9.99804C17.5 9.22252 17.3753 8.47817 17.1571 7.77279H17.161ZM7.35195 10.1072V10.0955C7.35195 10.0955 7.34805 10.0955 7.34416 10.0955C7.34026 10.0955 7.33636 10.0994 7.33247 10.0994L5.6684 10.5242L4.41353 10.8437C4.33949 10.8632 4.28492 10.9256 4.26934 10.9996C4.03551 12.1882 3.92639 12.7962 3.73543 13.8991C3.73543 13.9068 3.74323 13.9302 3.75882 13.9536C4.57331 14.9318 5.07994 15.3761 6.00356 16.1867C6.02694 16.21 6.05811 16.2178 6.0659 16.2178C7.16099 16.0775 7.76115 15.9996 8.93418 15.7424C9.00433 15.7268 9.06278 15.6722 9.08227 15.6021C9.19918 15.1812 9.30051 14.8305 9.40184 14.4719C9.53824 13.9926 9.67853 13.5054 9.86559 12.8273C9.88507 12.7611 9.86559 12.6832 9.81493 12.6325C8.84455 11.666 8.32233 11.136 7.34416 10.1111L7.35195 10.1072Z" fill="#23262E" fill-opacity="0.7"/>
<path d="M2.51949 9.60831C2.51169 9.73692 2.5 9.86552 2.5 9.99802C2.5 10.9138 2.67147 11.7868 2.97545 12.5974C3.07677 12.0284 3.1781 11.4906 3.33398 10.7034C3.32229 10.6527 3.3028 10.5865 3.29111 10.5358C2.98714 10.1734 2.74552 9.87722 2.51949 9.60442V9.60831ZM9.32384 16.6426C9.32384 16.6426 9.29656 16.6543 9.28097 16.6582C8.85619 16.7517 8.50155 16.8258 8.18199 16.8842C7.97934 16.9232 7.96375 17.2116 8.1664 17.2661C8.75486 17.4181 9.3706 17.5 10.0058 17.5C10.1344 17.5 10.2591 17.4883 10.3839 17.4805C10.0799 17.2544 9.76032 17.0011 9.35112 16.6699C9.34333 16.6621 9.33553 16.6504 9.32774 16.6426H9.32384ZM15.0604 7.51557C14.0978 6.51011 13.5795 5.984 12.5935 5.00583C12.5857 4.99803 12.5701 4.99023 12.5584 4.99023C12.5584 4.99023 12.5506 4.99023 12.5468 4.99023C11.3348 5.28641 10.6333 5.46179 9.55377 5.75018C9.42517 5.78525 9.28877 5.82032 9.14458 5.85929C9.09781 5.90606 9.05494 5.94892 9.00428 5.99569C8.62236 7.28174 8.41971 7.99101 8.06897 9.30044C8.08456 9.36669 8.10015 9.42515 8.11574 9.4914C9.05105 10.4696 9.56936 10.9957 10.5203 11.9427C10.5865 11.9622 10.645 11.9778 10.7073 11.9933C12.0284 11.6699 12.7416 11.4867 14.1095 11.1204C14.1251 11.1165 14.1407 11.1009 14.1446 11.0892C14.5421 9.74861 14.7447 9.03934 15.1033 7.70263C15.0877 7.63638 15.0721 7.57792 15.0526 7.51167L15.0604 7.51557Z" fill="#23262E" fill-opacity="0.7"/>
</svg>
