<svg width="20" height="20" viewBox="0 0 20 20" fill="none" xmlns="http://www.w3.org/2000/svg">
<path d="M15.7489 6.818C15.7957 6.86866 15.8697 6.89205 15.9398 6.87256L16.4776 6.73616C16.5985 6.70499 16.6647 6.56469 16.6062 6.45557C15.9437 5.22798 14.9578 4.20304 13.7536 3.50156C13.6444 3.43921 13.5041 3.49766 13.4691 3.61848C13.4184 3.79385 13.3678 3.98091 13.3093 4.18356C13.2898 4.24981 13.3093 4.32775 13.36 4.37841C14.307 5.31761 14.8253 5.84762 15.7489 6.81411V6.818ZM7.51819 3.64575C7.86503 3.99649 8.22356 4.35893 8.7107 4.86165C8.76137 4.91232 8.83541 4.9318 8.90556 4.91621C10.2033 4.57327 10.9165 4.3901 12.2025 4.07444C12.2688 4.05885 12.3272 4.00429 12.3467 3.93804C12.4324 3.64575 12.5065 3.39244 12.5766 3.15861C12.6039 3.05729 12.5533 2.95207 12.4558 2.92089C11.6842 2.65199 10.8619 2.5 10.0006 2.5C9.03806 2.5 8.11834 2.68316 7.27267 3.01832C7.14406 3.06898 7.11289 3.24045 7.21031 3.33788C7.31554 3.4431 7.41686 3.54833 7.51819 3.64965V3.64575ZM4.17447 9.89672L6.98428 9.17965C7.05053 9.16406 7.10509 9.1056 7.12458 9.03935C7.47921 7.73772 7.68187 7.02455 8.05989 5.7502C8.07937 5.68394 8.05988 5.606 8.01312 5.55534C7.52208 5.04092 7.16744 4.67849 6.8206 4.32775C6.62575 4.12899 6.43089 3.93414 6.22045 3.7159C6.1542 3.64965 6.04898 3.63406 5.97103 3.68473C4.38101 4.70577 3.20019 6.30359 2.73254 8.18589C2.71695 8.24435 2.73253 8.3106 2.7715 8.36126C3.13394 8.81332 3.47299 9.23032 3.97961 9.83047C4.02638 9.88893 4.10821 9.91621 4.17836 9.89672H4.17447ZM15.6554 13.3535C15.289 12.9832 14.9149 12.6052 14.3849 12.0635C14.3849 12.0635 14.3732 12.0635 14.3693 12.0635C13.3171 12.3441 12.6468 12.5195 11.7972 12.7299C11.5439 12.7923 11.275 12.8585 10.9749 12.9326C10.9087 12.9482 10.8502 13.0027 10.8307 13.069C10.6281 13.7549 10.4878 14.242 10.3514 14.7174C10.2501 15.0643 10.1526 15.4072 10.0396 15.8164C10.0201 15.8905 10.0474 15.9762 10.1059 16.0269C10.7528 16.5491 11.1815 16.8687 11.7037 17.2233C11.7504 17.2545 11.8128 17.2662 11.8674 17.2506C13.6756 16.7868 15.2189 15.6644 16.2321 14.1563C16.2828 14.0783 16.2711 13.9731 16.2048 13.9068C16.0139 13.712 15.8346 13.5327 15.6554 13.3496V13.3535ZM17.1596 7.77279C17.1285 7.67536 17.0232 7.61691 16.9219 7.64419L16.1971 7.82735C16.1308 7.84294 16.0762 7.9014 16.0568 7.96765C15.6982 9.27708 15.4956 9.99025 15.1214 11.2568C15.102 11.3231 15.1214 11.401 15.1682 11.4517C15.6515 11.9622 16.0061 12.3207 16.349 12.6676C16.501 12.8196 16.6491 12.9715 16.805 13.1313C17.2454 12.1765 17.4987 11.1165 17.4987 9.99804C17.4987 9.22252 17.374 8.47817 17.1557 7.77279H17.1596ZM7.35061 10.1072V10.0955C7.35061 10.0955 7.34671 10.0955 7.34281 10.0955C7.33892 10.0955 7.33502 10.0994 7.33112 10.0994L5.66706 10.5242L4.41219 10.8437C4.33815 10.8632 4.28358 10.9256 4.26799 10.9996C4.03417 12.1882 3.92505 12.7962 3.73409 13.8991C3.73409 13.9068 3.74188 13.9302 3.75747 13.9536C4.57197 14.9318 5.0786 15.3761 6.00221 16.1867C6.02559 16.21 6.05677 16.2178 6.06456 16.2178C7.15965 16.0775 7.7598 15.9996 8.93284 15.7424C9.00298 15.7268 9.06144 15.6722 9.08093 15.6021C9.19784 15.1812 9.29917 14.8305 9.40049 14.4719C9.53689 13.9926 9.67718 13.5054 9.86424 12.8273C9.88373 12.7611 9.86425 12.6832 9.81359 12.6325C8.84321 11.666 8.32099 11.136 7.34281 10.1111L7.35061 10.1072Z" fill="#23262E"/>
<path d="M2.51949 9.61027C2.51169 9.73887 2.5 9.86748 2.5 9.99998C2.5 10.9158 2.67147 11.7888 2.97545 12.5993C3.07677 12.0304 3.1781 11.4926 3.33398 10.7054C3.32229 10.6547 3.3028 10.5884 3.29111 10.5378C2.98714 10.1753 2.74552 9.87917 2.51949 9.60637V9.61027ZM9.32384 16.6446C9.32384 16.6446 9.29656 16.6562 9.28097 16.6601C8.85619 16.7537 8.50155 16.8277 8.18199 16.8862C7.97934 16.9251 7.96375 17.2135 8.1664 17.2681C8.75486 17.4201 9.3706 17.5019 10.0058 17.5019C10.1344 17.5019 10.2591 17.4902 10.3839 17.4824C10.0799 17.2564 9.76032 17.0031 9.35112 16.6718C9.34333 16.664 9.33553 16.6523 9.32774 16.6446H9.32384ZM15.0604 7.51752C14.0978 6.51207 13.5795 5.98595 12.5935 5.00778C12.5857 4.99999 12.5701 4.99219 12.5584 4.99219C12.5584 4.99219 12.5506 4.99219 12.5468 4.99219C11.3348 5.28837 10.6333 5.46374 9.55377 5.75213C9.42517 5.7872 9.28877 5.82228 9.14458 5.86125C9.09781 5.90801 9.05494 5.95088 9.00428 5.99764C8.62236 7.28369 8.41971 7.99297 8.06897 9.3024C8.08456 9.36865 8.10015 9.4271 8.11574 9.49335C9.05105 10.4715 9.56936 10.9976 10.5203 11.9446C10.5865 11.9641 10.645 11.9797 10.7073 11.9953C12.0284 11.6718 12.7416 11.4887 14.1095 11.1223C14.1251 11.1185 14.1407 11.1029 14.1446 11.0912C14.5421 9.75056 14.7447 9.04129 15.1033 7.70458C15.0877 7.63833 15.0721 7.57987 15.0526 7.51362L15.0604 7.51752Z" fill="#23262E"/>
</svg>
