<svg width="20" height="20" viewBox="0 0 20 20" fill="none" xmlns="http://www.w3.org/2000/svg">
<path d="M3.33594 3.09096V16.9076C3.33597 17.01 3.36295 17.1106 3.41416 17.1992C3.46537 17.2879 3.53901 17.3615 3.62768 17.4127C3.71636 17.4639 3.81694 17.4908 3.91932 17.4908C4.0217 17.4908 4.12227 17.4638 4.21094 17.4126L16.3959 10.396C16.4657 10.3558 16.5236 10.2979 16.5639 10.2282C16.6042 10.1585 16.6254 10.0794 16.6254 9.99888C16.6254 9.91837 16.6042 9.83929 16.5639 9.76958C16.5236 9.69987 16.4657 9.642 16.3959 9.6018L4.21094 2.58596C4.12221 2.53474 4.02156 2.50778 3.91911 2.50781C3.81666 2.50784 3.71602 2.53485 3.62732 2.58613C3.53862 2.6374 3.465 2.71113 3.41385 2.7999C3.36269 2.88867 3.33582 2.98851 3.33594 3.09096Z" stroke="#23262E" stroke-width="1.5" stroke-linecap="round" stroke-linejoin="round"/>
<path d="M12.5 7.5L3.75 17.0833" stroke="#23262E" stroke-width="2" stroke-linecap="round" stroke-linejoin="round"/>
<path d="M3.75 2.91406L12.5 12.4974" stroke="#23262E" stroke-width="2" stroke-linecap="round" stroke-linejoin="round"/>
</svg>
