<svg width="21" height="20" viewBox="0 0 21 20" fill="none" xmlns="http://www.w3.org/2000/svg">
<mask id="mask0_1318_33068" style="mask-type:luminance" maskUnits="userSpaceOnUse" x="3" y="2" width="15" height="16">
<path d="M18 2.5H3V17.5H18V2.5Z" fill="white"/>
</mask>
<g mask="url(#mask0_1318_33068)">
<path fill-rule="evenodd" clip-rule="evenodd" d="M12.016 4.10694L13.5214 3.14263C11.6224 2.29903 9.45763 2.28544 7.54818 3.10513L8.9196 4.10694H12.016ZM13.3929 6.62509L15.3965 7.88405L17.2661 6.81259C16.6827 5.56729 15.7693 4.50563 14.6251 3.74288L12.7501 4.73397L13.3929 6.62509ZM11.7268 5.17846L12.3214 6.73743L10.3499 7.87318L8.39459 6.74814L9.07494 5.17846H11.7268ZM12.3108 13.2681L11.7376 14.8216H9.06434L8.41077 13.2573L10.3501 12.1376L12.3108 13.2681ZM5.83386 11.2003V8.76806L7.71957 7.58413L9.79275 8.77881V11.1896L7.71957 12.3843L5.83386 11.2003ZM17.6784 7.85693L15.9159 8.85337V11.2052L17.6678 12.2392C17.8911 11.5138 18.0031 10.7588 17.9999 9.99981C17.9985 9.27362 17.8902 8.55158 17.6784 7.85693ZM14.8446 8.81044V11.2426L12.9589 12.4266L10.8858 11.2319V8.82113L12.9589 7.62645L14.8446 8.81044ZM12.7125 15.2766L13.4036 13.3908L15.4125 12.1532L17.2661 13.2247C16.5554 14.7284 15.3616 15.9506 13.875 16.6963L12.7125 15.2766ZM8.98394 15.8982L7.97681 17.0554C8.78561 17.3492 9.6395 17.4997 10.5 17.5C11.32 17.4972 12.1341 17.3616 12.9107 17.0982L11.9304 15.8982H8.98394ZM5.28211 12.1266L7.30711 13.3962L8.0946 15.2874L6.94282 16.6052C5.48107 15.817 4.32228 14.5659 3.64819 13.0481L5.28211 12.1266ZM7.30707 6.61977L8.06778 4.66436L6.46065 3.69469C5.22828 4.48541 4.25431 5.61956 3.65888 6.95728L5.29279 7.87873L7.30707 6.61977ZM3.29464 7.97997L4.79464 8.82644L4.78392 11.1729L3.28393 12.0247C3.09728 11.3658 3.00175 10.6845 3 9.99969C3.0043 9.31606 3.10346 8.63633 3.29464 7.97997Z" fill="#23262E" fill-opacity="0.7"/>
</g>
</svg>
