<svg width="20" height="20" viewBox="0 0 20 20" fill="none" xmlns="http://www.w3.org/2000/svg">
<mask id="mask0_1318_33065" style="mask-type:luminance" maskUnits="userSpaceOnUse" x="2" y="2" width="16" height="16">
<path d="M17.5 2.5H2.5V17.5H17.5V2.5Z" fill="white"/>
</mask>
<g mask="url(#mask0_1318_33065)">
<path fill-rule="evenodd" clip-rule="evenodd" d="M13.8513 13.3582C10.905 16.1764 7.58907 17.5701 6.4427 16.4736L4.43386 14.5521C6.33021 14.3574 8.84261 12.9431 11.13 10.7552C13.2245 8.75175 14.8798 6.28708 15.0887 4.33997L17.1082 6.27171C18.2546 7.36824 16.7976 10.54 13.8513 13.3582ZM10.2942 9.95575C7.35333 12.7739 4.03741 14.1676 2.89104 13.0711C1.74467 11.9746 3.20174 8.80794 6.14803 5.98977C9.0943 3.17158 12.4102 1.77786 13.5512 2.87439C14.6923 3.97092 13.2405 7.14267 10.2942 9.95575Z" fill="#23262E" fill-opacity="0.7"/>
</g>
</svg>
