<svg width="18" height="14" viewBox="0 0 18 14" fill="none" xmlns="http://www.w3.org/2000/svg">
<path d="M12.1819 3.7526C13.9393 5.5475 13.9393 8.45766 12.1819 10.2526M5.81802 10.2525C4.06066 8.45766 4.06066 5.5475 5.81802 3.75258M3.6967 12.4193C0.767767 9.42769 0.767767 4.57748 3.6967 1.58594M14.3033 1.58597C17.2322 4.57751 17.2322 9.42776 14.3033 12.4193M10.5 7.00258C10.5 7.84874 9.82845 8.53465 9 8.53465C8.17155 8.53465 7.5 7.84874 7.5 7.00258C7.5 6.1565 8.17155 5.47052 9 5.47052C9.82845 5.47052 10.5 6.1565 10.5 7.00258Z" stroke="#23262E" stroke-opacity="0.7" stroke-width="1.5" stroke-linecap="round" stroke-linejoin="round"/>
</svg>
