<svg width="16" height="16" viewBox="0 0 16 16" fill="none" xmlns="http://www.w3.org/2000/svg">
<path d="M7.42924 1.56576C7.61257 1.1977 7.70431 1.01367 7.82876 0.954871C7.93705 0.903715 8.06293 0.903715 8.17123 0.954871C8.29575 1.01367 8.38741 1.1977 8.57082 1.56576L10.3108 5.05758C10.3649 5.16623 10.3919 5.22057 10.4315 5.26275C10.4666 5.3001 10.5086 5.33036 10.5552 5.35185C10.6079 5.37613 10.6684 5.3849 10.7894 5.40242L14.6814 5.96595C15.0913 6.02529 15.2961 6.05496 15.391 6.15413C15.4735 6.2404 15.5123 6.35896 15.4966 6.47677C15.4785 6.6122 15.3302 6.75536 15.0335 7.04164L12.2183 9.75787C12.1306 9.84253 12.0867 9.88494 12.0583 9.9353C12.0333 9.97984 12.0172 10.0289 12.011 10.0796C12.004 10.1368 12.0143 10.1966 12.035 10.3162L12.6993 14.1528C12.7694 14.5575 12.8044 14.7598 12.7386 14.8799C12.6813 14.9843 12.5795 15.0576 12.4615 15.0793C12.3258 15.1042 12.1424 15.0086 11.7756 14.8175L8.29631 13.0049C8.18785 12.9485 8.13367 12.9202 8.07654 12.9091C8.02601 12.8993 7.97397 12.8993 7.92345 12.9091C7.86632 12.9202 7.81213 12.9485 7.70376 13.0049L4.22438 14.8175C3.85757 15.0086 3.67415 15.1042 3.53854 15.0793C3.42054 15.0576 3.31873 14.9843 3.26145 14.8799C3.19562 14.7598 3.23065 14.5575 3.30071 14.1528L3.96496 10.3162C3.98567 10.1966 3.99603 10.1368 3.98902 10.0796C3.98281 10.0289 3.96673 9.97984 3.94167 9.9353C3.91335 9.88494 3.86947 9.84253 3.78172 9.75787L0.966543 7.04164C0.66983 6.75536 0.521474 6.6122 0.503428 6.47677C0.487721 6.35896 0.526519 6.2404 0.609032 6.15413C0.70387 6.05496 0.908784 6.02529 1.31862 5.96595L5.21055 5.40242C5.33158 5.3849 5.3921 5.37613 5.44481 5.35185C5.49147 5.33036 5.53348 5.3001 5.56852 5.26275C5.60808 5.22057 5.63515 5.16623 5.68929 5.05758L7.42924 1.56576Z" fill="#23262E"/>
</svg>
