<svg width="20" height="20" viewBox="0 0 20 20" fill="none" xmlns="http://www.w3.org/2000/svg">
<path d="M6.9548 13.0452L2.5 17.5M9.56751 5.9777L8.33829 7.20691C8.23804 7.30719 8.18789 7.35732 8.13077 7.39715C8.08007 7.43251 8.02538 7.46178 7.96784 7.48435C7.90301 7.50978 7.83349 7.52369 7.69444 7.55149L4.80865 8.12865C4.05871 8.27864 3.68374 8.35363 3.50831 8.55134C3.35548 8.72357 3.28569 8.95407 3.31732 9.18213C3.35362 9.44398 3.62401 9.71433 4.1648 10.2552L9.74485 15.8352C10.2856 16.376 10.5561 16.6464 10.8178 16.6827C11.046 16.7143 11.2765 16.6445 11.4487 16.4917C11.6464 16.3163 11.7213 15.9413 11.8714 15.1914L12.4485 12.3055C12.4763 12.1665 12.4903 12.097 12.5157 12.0322C12.5382 11.9746 12.5675 11.92 12.6029 11.8693C12.6427 11.8121 12.6928 11.762 12.7931 11.6618L14.0223 10.4325C14.0864 10.3684 14.1185 10.3364 14.1537 10.3083C14.185 10.2835 14.2181 10.2611 14.2528 10.2412C14.2919 10.2189 14.3336 10.2011 14.4169 10.1653L16.3812 9.32349C16.9543 9.07787 17.2409 8.9551 17.371 8.75664C17.4848 8.58312 17.5256 8.37167 17.4843 8.16828C17.4371 7.93569 17.2167 7.71526 16.7759 7.27439L12.7256 3.22415C12.2847 2.78328 12.0643 2.56285 11.8317 2.5157C11.6283 2.47447 11.4169 2.51519 11.2434 2.62901C11.0449 2.75917 10.9221 3.0457 10.6766 3.61877L9.83471 5.58308C9.79895 5.66642 9.78108 5.70809 9.75879 5.74715C9.73895 5.78187 9.7165 5.81501 9.69162 5.84631C9.66366 5.88155 9.63161 5.9136 9.56751 5.9777Z" stroke="#23262E" stroke-opacity="0.7" stroke-width="1.5" stroke-linecap="round" stroke-linejoin="round"/>
</svg>
