<svg width="120" height="120" viewBox="0 0 120 120" fill="none" xmlns="http://www.w3.org/2000/svg">
<mask id="mask0_7162_16419" style="mask-type:luminance" maskUnits="userSpaceOnUse" x="4" y="4" width="112" height="112">
<path d="M6.2425 38.1647C7.17034 38.1647 7.9225 37.4125 7.9225 36.4847C7.9225 35.5568 7.17034 34.8047 6.2425 34.8047C5.31466 34.8047 4.5625 35.5568 4.5625 36.4847C4.5625 37.4125 5.31466 38.1647 6.2425 38.1647Z" fill="white"/>
<path d="M7.92188 44.8828V41.5228H6.24187C5.79631 41.5228 5.369 41.6998 5.05394 42.0149C4.73887 42.3299 4.56187 42.7572 4.56187 43.2028C4.56187 43.6484 4.73887 44.0757 5.05394 44.3908C5.369 44.7058 5.79631 44.8828 6.24187 44.8828" fill="white"/>
<path d="M7.92188 51.6016V48.2416H6.24187C5.79631 48.2416 5.369 48.4186 5.05394 48.7336C4.73887 49.0487 4.56187 49.476 4.56187 49.9216C4.56187 50.3671 4.73887 50.7944 5.05394 51.1095C5.369 51.4246 5.79631 51.6016 6.24187 51.6016" fill="white"/>
<path d="M4.5625 68.4062H7.9225V66.7262C7.9225 66.2807 7.7455 65.8534 7.43044 65.5383C7.11538 65.2232 6.68806 65.0462 6.2425 65.0462C5.79694 65.0462 5.36962 65.2232 5.05456 65.5383C4.7395 65.8534 4.5625 66.2807 4.5625 66.7262" fill="white"/>
<path d="M7.9225 68.4062H4.5625V71.7663H7.9225V68.4062Z" fill="white"/>
<path d="M7.9225 71.7656H4.5625V75.1256H7.9225V71.7656Z" fill="white"/>
<path d="M7.92188 75.125H4.56187V76.805C4.56187 77.2506 4.73888 77.6779 5.05394 77.9929C5.369 78.308 5.79631 78.485 6.24187 78.485C6.68744 78.485 7.11475 78.308 7.42981 77.9929C7.74487 77.6779 7.92187 77.2506 7.92188 76.805" fill="white"/>
<path d="M7.92188 85.2031V81.8431H6.24187C5.79631 81.8431 5.369 82.0201 5.05394 82.3352C4.73887 82.6502 4.56187 83.0776 4.56187 83.5231C4.56187 83.9687 4.73887 84.396 5.05394 84.7111C5.369 85.0261 5.79631 85.2031 6.24187 85.2031" fill="white"/>
<path d="M11.2812 34.8047V31.4447H9.60125C9.15569 31.4447 8.72837 31.6217 8.41331 31.9367C8.09825 32.2518 7.92125 32.6791 7.92125 33.1247C7.92125 33.5703 8.09825 33.9976 8.41331 34.3126C8.72837 34.6277 9.15569 34.8047 9.60125 34.8047" fill="white"/>
<path d="M7.92188 41.5234H11.2819V38.1634H9.60188C9.15631 38.1634 8.729 38.3404 8.41393 38.6555C8.09887 38.9706 7.92188 39.3979 7.92188 39.8434" fill="white"/>
<path d="M11.2812 41.5234H7.92125V44.8834H9.60125C10.0468 44.8834 10.4741 44.7064 10.7892 44.3914C11.1043 44.0763 11.2812 43.649 11.2812 43.2034" fill="white"/>
<path d="M7.92188 48.2422V51.6022H11.2819V49.9222C11.2819 49.4766 11.1049 49.0493 10.7898 48.7342C10.4748 48.4192 10.0474 48.2422 9.60188 48.2422" fill="white"/>
<path d="M11.2812 51.6016H7.92125V53.2816C7.92125 53.7271 8.09825 54.1544 8.41331 54.4695C8.72837 54.7846 9.15569 54.9616 9.60125 54.9616C10.0468 54.9616 10.4741 54.7846 10.7892 54.4695C11.1043 54.1544 11.2812 53.7271 11.2812 53.2816" fill="white"/>
<path d="M7.92188 61.6797H11.2819V59.9997C11.2819 59.5541 11.1049 59.1268 10.7898 58.8117C10.4748 58.4967 10.0474 58.3197 9.60188 58.3197C9.15631 58.3197 8.729 58.4967 8.41393 58.8117C8.09887 59.1268 7.92188 59.5541 7.92188 59.9997" fill="white"/>
<path d="M11.2812 61.6797H7.92125V63.3597C7.92125 63.8053 8.09825 64.2326 8.41331 64.5476C8.72837 64.8627 9.15569 65.0397 9.60125 65.0397C10.0468 65.0397 10.4741 64.8627 10.7892 64.5476C11.1042 64.2326 11.2812 63.8053 11.2812 63.3597" fill="white"/>
<path d="M7.92188 81.8438H11.2819V80.1637C11.2819 79.7182 11.1049 79.2909 10.7898 78.9758C10.4748 78.6607 10.0474 78.4837 9.60188 78.4837C9.15631 78.4837 8.729 78.6607 8.41394 78.9758C8.09888 79.2909 7.92188 79.7182 7.92188 80.1637" fill="white"/>
<path d="M11.2819 81.8438H7.92188V85.2038H11.2819V81.8438Z" fill="white"/>
<path d="M11.2812 85.2031H7.92125V86.8831C7.92125 87.3287 8.09825 87.756 8.41331 88.0711C8.72837 88.3861 9.15569 88.5631 9.60125 88.5631C10.0468 88.5631 10.4741 88.3861 10.7892 88.0711C11.1042 87.756 11.2812 87.3287 11.2812 86.8831" fill="white"/>
<path d="M11.2812 31.4453V34.8053H12.9613C13.4068 34.8053 13.8341 34.6283 14.1492 34.3133C14.4643 33.9982 14.6413 33.5709 14.6413 33.1253C14.6413 32.6797 14.4643 32.2524 14.1492 31.9374C13.8341 31.6223 13.4068 31.4453 12.9613 31.4453" fill="white"/>
<path d="M14.6413 38.1641H11.2812V41.5241H14.6413V38.1641Z" fill="white"/>
<path d="M14.6406 68.4062V65.0462H12.9606C12.5151 65.0462 12.0877 65.2233 11.7727 65.5383C11.4576 65.8534 11.2806 66.2807 11.2806 66.7262C11.2806 67.1718 11.4576 67.5991 11.7727 67.9142C12.0877 68.2292 12.5151 68.4062 12.9606 68.4062" fill="white"/>
<path d="M14.6406 38.1641V41.5241H16.3206C16.7662 41.5241 17.1935 41.3471 17.5086 41.032C17.8236 40.7169 18.0006 40.2896 18.0006 39.8441C18.0006 39.3985 17.8236 38.9712 17.5086 38.6561C17.1935 38.3411 16.7662 38.1641 16.3206 38.1641" fill="white"/>
<path d="M16.3206 48.2428C17.2485 48.2428 18.0006 47.4907 18.0006 46.5628C18.0006 45.635 17.2485 44.8828 16.3206 44.8828C15.3928 44.8828 14.6406 45.635 14.6406 46.5628C14.6406 47.4907 15.3928 48.2428 16.3206 48.2428Z" fill="white"/>
<path d="M14.6406 58.3203H18.0006V56.6403C18.0006 56.1947 17.8236 55.7674 17.5086 55.4524C17.1935 55.1373 16.7662 54.9603 16.3206 54.9603C15.8751 54.9603 15.4477 55.1373 15.1327 55.4524C14.8176 55.7674 14.6406 56.1947 14.6406 56.6403" fill="white"/>
<path d="M18 58.3203H14.64V60.0003C14.64 60.4459 14.817 60.8732 15.1321 61.1883C15.4471 61.5033 15.8744 61.6803 16.32 61.6803C16.7656 61.6803 17.1929 61.5033 17.5079 61.1883C17.823 60.8732 18 60.4459 18 60.0003" fill="white"/>
<path d="M18.0006 65.0391H14.6406V68.3991H18.0006V65.0391Z" fill="white"/>
<path d="M14.6406 78.4844H18.0006V75.1244H16.3206C15.8751 75.1244 15.4477 75.3014 15.1327 75.6164C14.8176 75.9315 14.6406 76.3588 14.6406 76.8044" fill="white"/>
<path d="M18.0006 78.4844H14.6406V81.8444H18.0006V78.4844Z" fill="white"/>
<path d="M18 81.8438H14.64V83.5238C14.64 83.9693 14.817 84.3966 15.1321 84.7117C15.4471 85.0268 15.8744 85.2038 16.32 85.2038C16.7656 85.2038 17.1929 85.0268 17.5079 84.7117C17.823 84.3966 18 83.9693 18 83.5238" fill="white"/>
<path d="M21.3594 38.1641V34.8041H19.6794C19.2338 34.8041 18.8065 34.9811 18.4914 35.2961C18.1764 35.6112 17.9994 36.0385 17.9994 36.4841C17.9994 36.9296 18.1764 37.3569 18.4914 37.672C18.8065 37.9871 19.2338 38.1641 19.6794 38.1641" fill="white"/>
<path d="M21.3594 44.8828V41.5228H19.6794C19.2338 41.5228 18.8065 41.6998 18.4914 42.0149C18.1764 42.3299 17.9994 42.7572 17.9994 43.2028C17.9994 43.6484 18.1764 44.0757 18.4914 44.3908C18.8065 44.7058 19.2338 44.8828 19.6794 44.8828" fill="white"/>
<path d="M21.3594 51.6016V48.2416H19.6794C19.2338 48.2416 18.8065 48.4186 18.4914 48.7336C18.1764 49.0487 17.9994 49.476 17.9994 49.9216C17.9994 50.3671 18.1764 50.7944 18.4914 51.1095C18.8065 51.4246 19.2338 51.6016 19.6794 51.6016" fill="white"/>
<path d="M21.36 65.0391H18V68.3991H21.36V65.0391Z" fill="white"/>
<path d="M21.36 75.125H18V78.485H21.36V75.125Z" fill="white"/>
<path d="M21.3594 78.4844H17.9994V81.8444H19.6794C20.1249 81.8444 20.5523 81.6674 20.8673 81.3523C21.1824 81.0373 21.3594 80.6099 21.3594 80.1644" fill="white"/>
<path d="M21.3594 34.8047V38.1647H24.7194V36.4847C24.7194 36.0391 24.5424 35.6118 24.2273 35.2967C23.9123 34.9817 23.4849 34.8047 23.0394 34.8047" fill="white"/>
<path d="M24.7194 38.1641H21.3594V41.5241H24.7194V38.1641Z" fill="white"/>
<path d="M24.7194 41.5234H21.3594V44.8834H24.7194V41.5234Z" fill="white"/>
<path d="M24.7194 44.8828H21.3594V48.2428H24.7194V44.8828Z" fill="white"/>
<path d="M24.7188 48.2422H21.3587V51.6022H23.0387C23.4843 51.6022 23.9116 51.4252 24.2267 51.1101C24.5418 50.7951 24.7188 50.3678 24.7188 49.9222" fill="white"/>
<path d="M21.3594 65.0391H24.7194V63.3591C24.7194 62.9135 24.5424 62.4862 24.2273 62.1711C23.9123 61.8561 23.4849 61.6791 23.0394 61.6791C22.5938 61.6791 22.1665 61.8561 21.8514 62.1711C21.5364 62.4862 21.3594 62.9135 21.3594 63.3591" fill="white"/>
<path d="M24.7194 65.0391H21.3594V68.3991H24.7194V65.0391Z" fill="white"/>
<path d="M21.3594 75.125V78.485H23.0394C23.4849 78.485 23.9123 78.308 24.2273 77.9929C24.5424 77.6779 24.7194 77.2506 24.7194 76.805C24.7194 76.3594 24.5424 75.9321 24.2273 75.6171C23.9123 75.302 23.4849 75.125 23.0394 75.125" fill="white"/>
<path d="M26.3988 34.8053C27.3266 34.8053 28.0788 34.0532 28.0788 33.1253C28.0788 32.1975 27.3266 31.4453 26.3988 31.4453C25.4709 31.4453 24.7188 32.1975 24.7188 33.1253C24.7188 34.0532 25.4709 34.8053 26.3988 34.8053Z" fill="white"/>
<path d="M28.0788 38.1641H24.7188V41.5241H28.0788V38.1641Z" fill="white"/>
<path d="M24.7188 44.8828V48.2428H26.3988C26.8443 48.2428 27.2716 48.0658 27.5867 47.7508C27.9018 47.4357 28.0788 47.0084 28.0788 46.5628C28.0788 46.1172 27.9018 45.6899 27.5867 45.3749C27.2716 45.0598 26.8443 44.8828 26.3988 44.8828" fill="white"/>
<path d="M28.0859 54.9609V51.6009H26.4059C25.9604 51.6009 25.5331 51.7779 25.218 52.093C24.9029 52.4081 24.7259 52.8354 24.7259 53.2809C24.7259 53.7265 24.9029 54.1538 25.218 54.4689C25.5331 54.7839 25.9604 54.9609 26.4059 54.9609" fill="white"/>
<path d="M26.3988 61.6803C27.3266 61.6803 28.0788 60.9282 28.0788 60.0003C28.0788 59.0725 27.3266 58.3203 26.3988 58.3203C25.4709 58.3203 24.7188 59.0725 24.7188 60.0003C24.7188 60.9282 25.4709 61.6803 26.3988 61.6803Z" fill="white"/>
<path d="M28.0788 65.0391H24.7188V68.3991H28.0788V65.0391Z" fill="white"/>
<path d="M26.3988 75.1256C27.3266 75.1256 28.0788 74.3735 28.0788 73.4456C28.0788 72.5178 27.3266 71.7656 26.3988 71.7656C25.4709 71.7656 24.7188 72.5178 24.7188 73.4456C24.7188 74.3735 25.4709 75.1256 26.3988 75.1256Z" fill="white"/>
<path d="M28.0859 81.8438V78.4837H26.4059C25.9604 78.4837 25.5331 78.6608 25.218 78.9758C24.9029 79.2909 24.7259 79.7182 24.7259 80.1637C24.7259 80.6093 24.9029 81.0366 25.218 81.3517C25.5331 81.6667 25.9604 81.8438 26.4059 81.8438" fill="white"/>
<path d="M28.0859 88.5625V85.2025H26.4059C25.9604 85.2025 25.5331 85.3795 25.218 85.6946C24.9029 86.0096 24.7259 86.4369 24.7259 86.8825C24.7259 87.3281 24.9029 87.7554 25.218 88.0704C25.5331 88.3855 25.9604 88.5625 26.4059 88.5625" fill="white"/>
<path d="M28.0859 38.1641H31.4459V36.4841C31.4459 36.0385 31.2689 35.6112 30.9539 35.2961C30.6388 34.9811 30.2115 34.8041 29.7659 34.8041C29.3204 34.8041 28.8931 34.9811 28.578 35.2961C28.2629 35.6112 28.0859 36.0385 28.0859 36.4841" fill="white"/>
<path d="M31.4459 38.1641H28.0859V41.5241H31.4459V38.1641Z" fill="white"/>
<path d="M31.4453 41.5234H28.0853V43.2034C28.0853 43.649 28.2623 44.0763 28.5774 44.3914C28.8924 44.7064 29.3197 44.8834 29.7653 44.8834C30.2109 44.8834 30.6382 44.7064 30.9533 44.3914C31.2683 44.0763 31.4453 43.649 31.4453 43.2034" fill="white"/>
<path d="M28.0859 51.6016H31.4459V49.9216C31.4459 49.476 31.2689 49.0487 30.9539 48.7336C30.6388 48.4186 30.2115 48.2416 29.7659 48.2416C29.3204 48.2416 28.8931 48.4186 28.578 48.7336C28.2629 49.0487 28.0859 49.476 28.0859 49.9216" fill="white"/>
<path d="M31.4459 51.6016H28.0859V54.9616H31.4459V51.6016Z" fill="white"/>
<path d="M28.0859 65.0391H31.4459V61.6791H29.7659C29.3204 61.6791 28.8931 61.8561 28.578 62.1711C28.2629 62.4862 28.0859 62.9135 28.0859 63.3591" fill="white"/>
<path d="M31.4459 65.0391H28.0859V68.3991H31.4459V65.0391Z" fill="white"/>
<path d="M31.4453 68.4062H28.0853V70.0863C28.0853 70.5318 28.2623 70.9591 28.5774 71.2742C28.8924 71.5893 29.3197 71.7663 29.7653 71.7663C30.2109 71.7663 30.6382 71.5893 30.9532 71.2742C31.2683 70.9591 31.4453 70.5318 31.4453 70.0863" fill="white"/>
<path d="M28.0859 78.4844V81.8444H29.7659C30.2115 81.8444 30.6388 81.6674 30.9539 81.3523C31.2689 81.0373 31.4459 80.6099 31.4459 80.1644C31.4459 79.7188 31.2689 79.2915 30.9539 78.9764C30.6388 78.6614 30.2115 78.4844 29.7659 78.4844" fill="white"/>
<path d="M31.4459 85.2031H28.0859V88.5631H31.4459V85.2031Z" fill="white"/>
<path d="M31.4453 11.2812H34.8053V7.92125H33.1253C32.6797 7.92125 32.2524 8.09825 31.9374 8.41331C31.6223 8.72837 31.4453 9.15569 31.4453 9.60125" fill="white"/>
<path d="M34.8053 11.2812H31.4453V14.6413H34.8053V11.2812Z" fill="white"/>
<path d="M34.8047 14.6406H31.4447V16.3206C31.4447 16.7662 31.6217 17.1935 31.9367 17.5086C32.2518 17.8236 32.6791 18.0006 33.1247 18.0006C33.5703 18.0006 33.9976 17.8236 34.3126 17.5086C34.6277 17.1935 34.8047 16.7662 34.8047 16.3206" fill="white"/>
<path d="M31.4453 24.7188H34.8053V23.0387C34.8053 22.5932 34.6283 22.1659 34.3133 21.8508C33.9982 21.5357 33.5709 21.3587 33.1253 21.3587C32.6797 21.3587 32.2524 21.5357 31.9374 21.8508C31.6223 22.1659 31.4453 22.5932 31.4453 23.0387" fill="white"/>
<path d="M34.8047 24.7188H31.4447V26.3988C31.4447 26.8443 31.6217 27.2716 31.9367 27.5867C32.2518 27.9018 32.6791 28.0788 33.1247 28.0788C33.5703 28.0788 33.9976 27.9018 34.3126 27.5867C34.6277 27.2716 34.8047 26.8443 34.8047 26.3988" fill="white"/>
<path d="M33.1253 48.2428C34.0532 48.2428 34.8053 47.4907 34.8053 46.5628C34.8053 45.635 34.0532 44.8828 33.1253 44.8828C32.1975 44.8828 31.4453 45.635 31.4453 46.5628C31.4453 47.4907 32.1975 48.2428 33.1253 48.2428Z" fill="white"/>
<path d="M34.8053 51.6016H31.4453V54.9616H34.8053V51.6016Z" fill="white"/>
<path d="M34.8053 54.9609H31.4453V58.3209H34.8053V54.9609Z" fill="white"/>
<path d="M34.8053 58.3203H31.4453V61.6803H34.8053V58.3203Z" fill="white"/>
<path d="M34.8053 61.6797H31.4453V65.0397H34.8053V61.6797Z" fill="white"/>
<path d="M34.8053 65.0391H31.4453V68.3991H34.8053V65.0391Z" fill="white"/>
<path d="M34.8047 78.4844V75.1244H33.1247C32.6791 75.1244 32.2518 75.3014 31.9367 75.6164C31.6217 75.9315 31.4447 76.3588 31.4447 76.8044C31.4447 77.2499 31.6217 77.6773 31.9367 77.9923C32.2518 78.3074 32.6791 78.4844 33.1247 78.4844" fill="white"/>
<path d="M31.4453 85.2031H34.8053V81.8431H33.1253C32.6797 81.8431 32.2524 82.0201 31.9374 82.3352C31.6223 82.6502 31.4453 83.0776 31.4453 83.5231" fill="white"/>
<path d="M34.8047 85.2031H31.4447V88.5631H33.1247C33.5703 88.5631 33.9976 88.3861 34.3126 88.0711C34.6277 87.756 34.8047 87.3287 34.8047 86.8831" fill="white"/>
<path d="M31.4453 108.719H34.8053V105.359H33.1253C32.6797 105.359 32.2524 105.536 31.9374 105.851C31.6223 106.166 31.4453 106.593 31.4453 107.039" fill="white"/>
<path d="M34.8047 108.719H31.4447V110.399C31.4447 110.844 31.6217 111.272 31.9368 111.587C32.2518 111.902 32.6791 112.079 33.1247 112.079C33.5703 112.079 33.9976 111.902 34.3126 111.587C34.6277 111.272 34.8047 110.844 34.8047 110.399" fill="white"/>
<path d="M34.8047 7.92188H38.1647V6.24187C38.1647 5.79631 37.9877 5.369 37.6726 5.05393C37.3576 4.73887 36.9303 4.56187 36.4847 4.56187C36.0391 4.56187 35.6118 4.73887 35.2967 5.05393C34.9817 5.369 34.8047 5.79631 34.8047 6.24187" fill="white"/>
<path d="M38.1641 7.92188H34.8041V11.2819H36.4841C36.9296 11.2819 37.3569 11.1049 37.672 10.7898C37.9871 10.4748 38.1641 10.0474 38.1641 9.60188" fill="white"/>
<path d="M38.1641 34.8047V31.4447H36.4841C36.0385 31.4447 35.6112 31.6217 35.2961 31.9367C34.9811 32.2518 34.8041 32.6791 34.8041 33.1247C34.8041 33.5703 34.9811 33.9976 35.2961 34.3126C35.6112 34.6277 36.0385 34.8047 36.4841 34.8047" fill="white"/>
<path d="M34.8047 51.6016V54.9616H36.4847C36.9303 54.9616 37.3576 54.7846 37.6726 54.4695C37.9877 54.1544 38.1647 53.7271 38.1647 53.2816C38.1647 52.836 37.9877 52.4087 37.6726 52.0936C37.3576 51.7786 36.9303 51.6016 36.4847 51.6016" fill="white"/>
<path d="M34.8047 61.6797V65.0397H38.1647V63.3597C38.1647 62.9141 37.9877 62.4868 37.6726 62.1718C37.3576 61.8567 36.9303 61.6797 36.4847 61.6797" fill="white"/>
<path d="M38.1647 65.0391H34.8047V68.3991H38.1647V65.0391Z" fill="white"/>
<path d="M38.1647 68.4062H34.8047V71.7663H38.1647V68.4062Z" fill="white"/>
<path d="M38.1647 71.7656H34.8047V75.1256H38.1647V71.7656Z" fill="white"/>
<path d="M38.1647 75.125H34.8047V78.485H38.1647V75.125Z" fill="white"/>
<path d="M38.1647 78.4844H34.8047V81.8444H38.1647V78.4844Z" fill="white"/>
<path d="M38.1647 81.8438H34.8047V85.2038H38.1647V81.8438Z" fill="white"/>
<path d="M34.8047 95.2812H38.1647V91.9212H36.4847C36.0391 91.9212 35.6118 92.0982 35.2968 92.4133C34.9817 92.7284 34.8047 93.1557 34.8047 93.6012" fill="white"/>
<path d="M38.1641 98.6406V95.2806H34.8041V96.9606C34.8041 97.4062 34.9811 97.8335 35.2961 98.1486C35.6112 98.4636 36.0385 98.6406 36.4841 98.6406" fill="white"/>
<path d="M34.8047 105.359H38.1647V101.999H36.4847C36.0391 101.999 35.6118 102.176 35.2968 102.491C34.9817 102.806 34.8047 103.234 34.8047 103.679" fill="white"/>
<path d="M38.1641 105.359H34.8041V108.719H36.4841C36.9296 108.719 37.3569 108.542 37.672 108.227C37.9871 107.912 38.1641 107.485 38.1641 107.039" fill="white"/>
<path d="M38.1641 115.445V112.085H36.4841C36.0385 112.085 35.6112 112.262 35.2961 112.577C34.9811 112.892 34.8041 113.32 34.8041 113.765C34.8041 114.211 34.9811 114.638 35.2961 114.953C35.6112 115.268 36.0385 115.445 36.4841 115.445" fill="white"/>
<path d="M41.5234 21.3594V17.9994H39.8434C39.3979 17.9994 38.9706 18.1764 38.6555 18.4914C38.3404 18.8065 38.1634 19.2338 38.1634 19.6794C38.1634 20.1249 38.3404 20.5523 38.6555 20.8673C38.9706 21.1824 39.3979 21.3594 39.8434 21.3594" fill="white"/>
<path d="M38.1641 28.0859H41.5241V26.4059C41.5241 25.9604 41.3471 25.5331 41.032 25.218C40.7169 24.9029 40.2896 24.7259 39.8441 24.7259C39.3985 24.7259 38.9712 24.9029 38.6561 25.218C38.3411 25.5331 38.1641 25.9604 38.1641 26.4059" fill="white"/>
<path d="M41.5241 28.0859H38.1641V31.4459H41.5241V28.0859Z" fill="white"/>
<path d="M41.5241 31.4453H38.1641V34.8053H41.5241V31.4453Z" fill="white"/>
<path d="M38.1641 41.5234H41.5241V38.1634H39.8441C39.3985 38.1634 38.9712 38.3404 38.6561 38.6555C38.3411 38.9706 38.1641 39.3979 38.1641 39.8434" fill="white"/>
<path d="M41.5234 44.8828V41.5228H38.1634V43.2028C38.1634 43.6484 38.3404 44.0757 38.6555 44.3908C38.9706 44.7058 39.3979 44.8828 39.8434 44.8828" fill="white"/>
<path d="M39.8441 51.6022C40.7719 51.6022 41.5241 50.85 41.5241 49.9222C41.5241 48.9943 40.7719 48.2422 39.8441 48.2422C38.9162 48.2422 38.1641 48.9943 38.1641 49.9222C38.1641 50.85 38.9162 51.6022 39.8441 51.6022Z" fill="white"/>
<path d="M41.5234 58.3203V54.9603H39.8434C39.3979 54.9603 38.9706 55.1373 38.6555 55.4524C38.3404 55.7674 38.1634 56.1947 38.1634 56.6403C38.1634 57.0859 38.3404 57.5132 38.6555 57.8283C38.9706 58.1433 39.3979 58.3203 39.8434 58.3203" fill="white"/>
<path d="M38.1641 65.0391V68.3991H39.8441C40.2896 68.3991 40.7169 68.2221 41.032 67.907C41.3471 67.5919 41.5241 67.1646 41.5241 66.7191C41.5241 66.2735 41.3471 65.8462 41.032 65.5311C40.7169 65.2161 40.2896 65.0391 39.8441 65.0391" fill="white"/>
<path d="M41.5241 71.7656H38.1641V75.1256H41.5241V71.7656Z" fill="white"/>
<path d="M41.5234 75.125H38.1634V78.485H39.8434C40.289 78.485 40.7163 78.308 41.0314 77.9929C41.3464 77.6779 41.5234 77.2506 41.5234 76.805" fill="white"/>
<path d="M41.5241 81.8438H38.1641V85.2038H41.5241V81.8438Z" fill="white"/>
<path d="M38.1641 91.9219H41.5241V88.5619H39.8441C39.3985 88.5619 38.9712 88.7389 38.6561 89.0539C38.3411 89.369 38.1641 89.7963 38.1641 90.2419" fill="white"/>
<path d="M41.5241 91.9219H38.1641V95.2819H41.5241V91.9219Z" fill="white"/>
<path d="M41.5241 95.2812H38.1641V98.6413H41.5241V95.2812Z" fill="white"/>
<path d="M41.5241 98.6406H38.1641V102.001H41.5241V98.6406Z" fill="white"/>
<path d="M41.5241 102H38.1641V105.36H41.5241V102Z" fill="white"/>
<path d="M38.1641 112.086H41.5241V110.406C41.5241 109.96 41.3471 109.533 41.032 109.218C40.7169 108.903 40.2896 108.726 39.8441 108.726C39.3985 108.726 38.9712 108.903 38.6561 109.218C38.3411 109.533 38.1641 109.96 38.1641 110.406" fill="white"/>
<path d="M41.5241 112.086H38.1641V115.446H41.5241V112.086Z" fill="white"/>
<path d="M41.5234 18H44.8834V16.32C44.8834 15.8744 44.7064 15.4471 44.3914 15.1321C44.0763 14.817 43.649 14.64 43.2034 14.64C42.7579 14.64 42.3306 14.817 42.0155 15.1321C41.7004 15.4471 41.5234 15.8744 41.5234 16.32" fill="white"/>
<path d="M44.8834 18H41.5234V21.36H44.8834V18Z" fill="white"/>
<path d="M44.8828 21.3594H41.5228V23.0394C41.5228 23.4849 41.6998 23.9123 42.0149 24.2273C42.3299 24.5424 42.7572 24.7194 43.2028 24.7194C43.6484 24.7194 44.0757 24.5424 44.3908 24.2273C44.7058 23.9123 44.8828 23.4849 44.8828 23.0394" fill="white"/>
<path d="M41.5234 31.4453V34.8053H43.2034C43.649 34.8053 44.0763 34.6283 44.3914 34.3133C44.7064 33.9982 44.8834 33.5709 44.8834 33.1253C44.8834 32.6797 44.7064 32.2524 44.3914 31.9374C44.0763 31.6223 43.649 31.4453 43.2034 31.4453" fill="white"/>
<path d="M44.8834 38.1641H41.5234V41.5241H44.8834V38.1641Z" fill="white"/>
<path d="M44.8834 41.5234H41.5234V44.8834H44.8834V41.5234Z" fill="white"/>
<path d="M41.5234 54.9609H44.8834V53.2809C44.8834 52.8354 44.7064 52.4081 44.3914 52.093C44.0763 51.7779 43.649 51.6009 43.2034 51.6009C42.7579 51.6009 42.3306 51.7779 42.0155 52.093C41.7004 52.4081 41.5234 52.8354 41.5234 53.2809" fill="white"/>
<path d="M44.8834 54.9609H41.5234V58.3209H44.8834V54.9609Z" fill="white"/>
<path d="M44.8834 58.3203H41.5234V61.6803H44.8834V58.3203Z" fill="white"/>
<path d="M44.8828 61.6797H41.5228V63.3597C41.5228 63.8053 41.6998 64.2326 42.0149 64.5476C42.3299 64.8627 42.7572 65.0397 43.2028 65.0397C43.6484 65.0397 44.0757 64.8627 44.3907 64.5476C44.7058 64.2326 44.8828 63.8053 44.8828 63.3597" fill="white"/>
<path d="M41.5234 71.7656V75.1256H43.2034C43.649 75.1256 44.0763 74.9486 44.3914 74.6336C44.7064 74.3185 44.8834 73.8912 44.8834 73.4456C44.8834 73.0001 44.7064 72.5727 44.3914 72.2577C44.0763 71.9426 43.649 71.7656 43.2034 71.7656" fill="white"/>
<path d="M41.5234 81.8438H44.8834V78.4837H43.2034C42.7579 78.4837 42.3306 78.6607 42.0155 78.9758C41.7004 79.2909 41.5234 79.7182 41.5234 80.1637" fill="white"/>
<path d="M44.8834 81.8438H41.5234V85.2038H44.8834V81.8438Z" fill="white"/>
<path d="M44.8834 85.2031H41.5234V88.5631H44.8834V85.2031Z" fill="white"/>
<path d="M44.8834 88.5625H41.5234V91.9225H44.8834V88.5625Z" fill="white"/>
<path d="M44.8834 91.9219H41.5234V95.2819H44.8834V91.9219Z" fill="white"/>
<path d="M44.8828 95.2812H41.5228V98.6413H43.2028C43.6484 98.6413 44.0757 98.4643 44.3907 98.1492C44.7058 97.8341 44.8828 97.4068 44.8828 96.9613" fill="white"/>
<path d="M44.8834 102H41.5234V105.36H44.8834V102Z" fill="white"/>
<path d="M41.5234 112.086V115.446H43.2034C43.649 115.446 44.0763 115.269 44.3914 114.954C44.7064 114.639 44.8834 114.212 44.8834 113.766C44.8834 113.32 44.7064 112.893 44.3914 112.578C44.0763 112.263 43.649 112.086 43.2034 112.086" fill="white"/>
<path d="M46.5628 7.9225C47.4907 7.9225 48.2428 7.17034 48.2428 6.2425C48.2428 5.31466 47.4907 4.5625 46.5628 4.5625C45.635 4.5625 44.8828 5.31466 44.8828 6.2425C44.8828 7.17034 45.635 7.9225 46.5628 7.9225Z" fill="white"/>
<path d="M48.2422 14.6406V11.2806H46.5622C46.1166 11.2806 45.6893 11.4576 45.3742 11.7727C45.0592 12.0877 44.8822 12.5151 44.8822 12.9606C44.8822 13.4062 45.0592 13.8335 45.3742 14.1486C45.6893 14.4636 46.1166 14.6406 46.5622 14.6406" fill="white"/>
<path d="M48.2428 18H44.8828V21.36H48.2428V18Z" fill="white"/>
<path d="M46.5628 28.0788C47.4907 28.0788 48.2428 27.3266 48.2428 26.3988C48.2428 25.4709 47.4907 24.7188 46.5628 24.7188C45.635 24.7188 44.8828 25.4709 44.8828 26.3988C44.8828 27.3266 45.635 28.0788 46.5628 28.0788Z" fill="white"/>
<path d="M44.8828 38.1641H48.2428V36.4841C48.2428 36.0385 48.0658 35.6112 47.7508 35.2961C47.4357 34.9811 47.0084 34.8041 46.5628 34.8041C46.1172 34.8041 45.6899 34.9811 45.3749 35.2961C45.0598 35.6112 44.8828 36.0385 44.8828 36.4841" fill="white"/>
<path d="M48.2428 38.1641H44.8828V41.5241H48.2428V38.1641Z" fill="white"/>
<path d="M48.2428 41.5234H44.8828V44.8834H48.2428V41.5234Z" fill="white"/>
<path d="M48.2428 44.8828H44.8828V48.2428H48.2428V44.8828Z" fill="white"/>
<path d="M48.2422 48.2422H44.8822V49.9222C44.8822 50.3678 45.0592 50.7951 45.3742 51.1101C45.6893 51.4252 46.1166 51.6022 46.5622 51.6022C47.0078 51.6022 47.4351 51.4252 47.7501 51.1101C48.0652 50.7951 48.2422 50.3678 48.2422 49.9222" fill="white"/>
<path d="M46.5628 71.7663C47.4907 71.7663 48.2428 71.0141 48.2428 70.0863C48.2428 69.1584 47.4907 68.4062 46.5628 68.4062C45.635 68.4062 44.8828 69.1584 44.8828 70.0863C44.8828 71.0141 45.635 71.7663 46.5628 71.7663Z" fill="white"/>
<path d="M44.8828 78.4844V81.8444H48.2428V80.1644C48.2428 79.7188 48.0658 79.2915 47.7508 78.9764C47.4357 78.6614 47.0084 78.4844 46.5628 78.4844" fill="white"/>
<path d="M48.2428 81.8438H44.8828V85.2038H48.2428V81.8438Z" fill="white"/>
<path d="M48.2428 85.2031H44.8828V88.5631H48.2428V85.2031Z" fill="white"/>
<path d="M44.8828 102H48.2428V100.32C48.2428 99.8744 48.0658 99.4471 47.7507 99.1321C47.4357 98.817 47.0084 98.64 46.5628 98.64C46.1172 98.64 45.6899 98.817 45.3749 99.1321C45.0598 99.4471 44.8828 99.8744 44.8828 100.32" fill="white"/>
<path d="M48.2428 102H44.8828V105.36H48.2428V102Z" fill="white"/>
<path d="M48.2422 112.086V108.726H46.5622C46.1166 108.726 45.6893 108.903 45.3742 109.218C45.0592 109.533 44.8822 109.96 44.8822 110.406C44.8822 110.852 45.0592 111.279 45.3742 111.594C45.6893 111.909 46.1166 112.086 46.5622 112.086" fill="white"/>
<path d="M48.2422 11.2812V14.6413H49.9222C50.3678 14.6413 50.7951 14.4643 51.1101 14.1492C51.4252 13.8341 51.6022 13.4068 51.6022 12.9613C51.6022 12.5157 51.4252 12.0884 51.1101 11.7733C50.7951 11.4582 50.3678 11.2812 49.9222 11.2812" fill="white"/>
<path d="M48.2422 18V21.36H49.9222C50.3678 21.36 50.7951 21.183 51.1101 20.8679C51.4252 20.5529 51.6022 20.1256 51.6022 19.68C51.6022 19.2344 51.4252 18.8071 51.1101 18.4921C50.7951 18.177 50.3678 18 49.9222 18" fill="white"/>
<path d="M51.6022 41.5234H48.2422V44.8834H51.6022V41.5234Z" fill="white"/>
<path d="M49.9222 54.9616C50.85 54.9616 51.6022 54.2094 51.6022 53.2816C51.6022 52.3537 50.85 51.6016 49.9222 51.6016C48.9943 51.6016 48.2422 52.3537 48.2422 53.2816C48.2422 54.2094 48.9943 54.9616 49.9222 54.9616Z" fill="white"/>
<path d="M48.2422 61.6797H51.6022V59.9997C51.6022 59.5541 51.4252 59.1268 51.1101 58.8117C50.7951 58.4967 50.3678 58.3197 49.9222 58.3197C49.4766 58.3197 49.0493 58.4967 48.7342 58.8117C48.4192 59.1268 48.2422 59.5541 48.2422 59.9997" fill="white"/>
<path d="M51.6016 61.6797H48.2416V63.3597C48.2416 63.8053 48.4186 64.2326 48.7336 64.5476C49.0487 64.8627 49.476 65.0397 49.9216 65.0397C50.3671 65.0397 50.7944 64.8627 51.1095 64.5476C51.4246 64.2326 51.6016 63.8053 51.6016 63.3597" fill="white"/>
<path d="M51.6016 75.125V71.765H49.9216C49.476 71.765 49.0487 71.942 48.7336 72.2571C48.4186 72.5721 48.2416 72.9994 48.2416 73.445C48.2416 73.8906 48.4186 74.3179 48.7336 74.6329C49.0487 74.948 49.476 75.125 49.9216 75.125" fill="white"/>
<path d="M48.2422 81.8438V85.2038H51.6022V83.5238C51.6022 83.0782 51.4252 82.6509 51.1101 82.3358C50.7951 82.0208 50.3678 81.8438 49.9222 81.8438" fill="white"/>
<path d="M51.6022 85.2031H48.2422V88.5631H51.6022V85.2031Z" fill="white"/>
<path d="M51.6016 88.5625H48.2416V90.2425C48.2416 90.6881 48.4186 91.1154 48.7336 91.4304C49.0487 91.7455 49.476 91.9225 49.9216 91.9225C50.3671 91.9225 50.7944 91.7455 51.1095 91.4304C51.4246 91.1154 51.6016 90.6881 51.6016 90.2425" fill="white"/>
<path d="M51.6016 98.6406V95.2806H49.9216C49.476 95.2806 49.0487 95.4576 48.7336 95.7727C48.4186 96.0877 48.2416 96.5151 48.2416 96.9606C48.2416 97.4062 48.4186 97.8335 48.7336 98.1486C49.0487 98.4636 49.476 98.6406 49.9216 98.6406" fill="white"/>
<path d="M51.6022 102H48.2422V105.36H51.6022V102Z" fill="white"/>
<path d="M48.2422 108.719V112.079H49.9222C50.3678 112.079 50.7951 111.902 51.1101 111.587C51.4252 111.272 51.6022 110.844 51.6022 110.399C51.6022 109.953 51.4252 109.526 51.1101 109.211C50.7951 108.896 50.3678 108.719 49.9222 108.719" fill="white"/>
<path d="M53.2816 11.2819C54.2094 11.2819 54.9616 10.5297 54.9616 9.60188C54.9616 8.67404 54.2094 7.92188 53.2816 7.92188C52.3537 7.92188 51.6016 8.67404 51.6016 9.60188C51.6016 10.5297 52.3537 11.2819 53.2816 11.2819Z" fill="white"/>
<path d="M51.6016 24.7188H54.9616V23.0387C54.9616 22.5932 54.7846 22.1659 54.4695 21.8508C54.1544 21.5357 53.7271 21.3587 53.2816 21.3587C52.836 21.3587 52.4087 21.5357 52.0936 21.8508C51.7786 22.1659 51.6016 22.5932 51.6016 23.0387" fill="white"/>
<path d="M54.9609 24.7188H51.6009V26.3988C51.6009 26.8443 51.7779 27.2716 52.093 27.5867C52.4081 27.9018 52.8354 28.0788 53.2809 28.0788C53.7265 28.0788 54.1538 27.9018 54.4689 27.5867C54.7839 27.2716 54.9609 26.8443 54.9609 26.3988" fill="white"/>
<path d="M53.2816 34.8053C54.2094 34.8053 54.9616 34.0532 54.9616 33.1253C54.9616 32.1975 54.2094 31.4453 53.2816 31.4453C52.3537 31.4453 51.6016 32.1975 51.6016 33.1253C51.6016 34.0532 52.3537 34.8053 53.2816 34.8053Z" fill="white"/>
<path d="M54.9616 41.5234H51.6016V44.8834H54.9616V41.5234Z" fill="white"/>
<path d="M54.9609 44.8828H51.6009V46.5628C51.6009 47.0084 51.7779 47.4357 52.093 47.7508C52.4081 48.0658 52.8354 48.2428 53.2809 48.2428C53.7265 48.2428 54.1538 48.0658 54.4689 47.7508C54.7839 47.4357 54.9609 47.0084 54.9609 46.5628" fill="white"/>
<path d="M53.2816 58.3209C54.2094 58.3209 54.9616 57.5688 54.9616 56.6409C54.9616 55.7131 54.2094 54.9609 53.2816 54.9609C52.3537 54.9609 51.6016 55.7131 51.6016 56.6409C51.6016 57.5688 52.3537 58.3209 53.2816 58.3209Z" fill="white"/>
<path d="M51.6016 68.4062H54.9616V65.0462H53.2816C53.0609 65.0462 52.8425 65.0897 52.6387 65.1741C52.4348 65.2586 52.2496 65.3823 52.0936 65.5383C51.9376 65.6943 51.8139 65.8795 51.7294 66.0833C51.645 66.2872 51.6016 66.5056 51.6016 66.7262" fill="white"/>
<path d="M54.9616 68.4062H51.6016V71.7663H54.9616V68.4062Z" fill="white"/>
<path d="M54.9609 71.7656H51.6009V75.1256H53.2809C53.5016 75.1256 53.72 75.0822 53.9238 74.9977C54.1277 74.9133 54.3129 74.7896 54.4689 74.6336C54.6249 74.4776 54.7486 74.2924 54.8331 74.0885C54.9175 73.8847 54.9609 73.6662 54.9609 73.4456" fill="white"/>
<path d="M51.6016 85.2031V88.5631H53.2816C53.7271 88.5631 54.1544 88.3861 54.4695 88.0711C54.7846 87.756 54.9616 87.3287 54.9616 86.8831C54.9616 86.4376 54.7846 86.0102 54.4695 85.6952C54.1544 85.3801 53.7271 85.2031 53.2816 85.2031" fill="white"/>
<path d="M51.6016 95.2812H54.9616V91.9212H53.2816C53.0609 91.9212 52.8425 91.9647 52.6387 92.0491C52.4348 92.1336 52.2496 92.2573 52.0936 92.4133C51.9376 92.5693 51.8139 92.7545 51.7294 92.9583C51.645 93.1622 51.6016 93.3806 51.6016 93.6012" fill="white"/>
<path d="M54.9609 95.2812H51.6009V98.6413H53.2809C53.5016 98.6413 53.72 98.5978 53.9238 98.5134C54.1277 98.4289 54.3129 98.3052 54.4689 98.1492C54.6249 97.9932 54.7486 97.808 54.8331 97.6042C54.9175 97.4003 54.9609 97.1819 54.9609 96.9613" fill="white"/>
<path d="M54.9616 102H51.6016V105.36H54.9616V102Z" fill="white"/>
<path d="M54.9609 14.6406H58.3209V12.9606C58.3209 12.5151 58.1439 12.0877 57.8289 11.7727C57.5138 11.4576 57.0865 11.2806 56.6409 11.2806C56.1954 11.2806 55.7681 11.4576 55.453 11.7727C55.1379 12.0877 54.9609 12.5151 54.9609 12.9606" fill="white"/>
<path d="M58.3209 14.6406H54.9609V18.0006H58.3209V14.6406Z" fill="white"/>
<path d="M58.3203 18H54.9603V19.68C54.9603 20.1256 55.1373 20.5529 55.4524 20.8679C55.7674 21.183 56.1947 21.36 56.6403 21.36C57.0859 21.36 57.5132 21.183 57.8283 20.8679C58.1433 20.5529 58.3203 20.1256 58.3203 19.68" fill="white"/>
<path d="M56.6409 31.4459C57.5688 31.4459 58.3209 30.6938 58.3209 29.7659C58.3209 28.8381 57.5688 28.0859 56.6409 28.0859C55.7131 28.0859 54.9609 28.8381 54.9609 29.7659C54.9609 30.6938 55.7131 31.4459 56.6409 31.4459Z" fill="white"/>
<path d="M58.3209 41.5234H54.9609V44.8834H58.3209V41.5234Z" fill="white"/>
<path d="M56.6409 61.6803C57.5688 61.6803 58.3209 60.9282 58.3209 60.0003C58.3209 59.0725 57.5688 58.3203 56.6409 58.3203C55.7131 58.3203 54.9609 59.0725 54.9609 60.0003C54.9609 60.9282 55.7131 61.6803 56.6409 61.6803Z" fill="white"/>
<path d="M58.3209 65.0391H54.9609V68.3991H58.3209V65.0391Z" fill="white"/>
<path d="M54.9609 78.4844H58.3209V75.1244H56.6409C56.1954 75.1244 55.7681 75.3014 55.453 75.6164C55.1379 75.9315 54.9609 76.3588 54.9609 76.8044" fill="white"/>
<path d="M58.3203 81.8438V78.4837H54.9603V80.1637C54.9603 80.6093 55.1373 81.0366 55.4524 81.3517C55.7674 81.6667 56.1947 81.8438 56.6403 81.8438" fill="white"/>
<path d="M54.9609 91.9219H58.3209V88.5619H56.6409C56.1954 88.5619 55.7681 88.7389 55.453 89.0539C55.1379 89.369 54.9609 89.7963 54.9609 90.2419" fill="white"/>
<path d="M58.3209 91.9219H54.9609V95.2819H58.3209V91.9219Z" fill="white"/>
<path d="M54.9609 102H58.3209V98.64H56.6409C56.1954 98.64 55.7681 98.817 55.453 99.1321C55.1379 99.4471 54.9609 99.8744 54.9609 100.32" fill="white"/>
<path d="M58.3209 102H54.9609V105.36H58.3209V102Z" fill="white"/>
<path d="M58.3203 108.719V105.359H54.9603V107.039C54.9603 107.484 55.1373 107.912 55.4524 108.227C55.7674 108.542 56.1947 108.719 56.6403 108.719" fill="white"/>
<path d="M60.0003 11.2819C60.9282 11.2819 61.6803 10.5297 61.6803 9.60188C61.6803 8.67404 60.9282 7.92188 60.0003 7.92188C59.0725 7.92188 58.3203 8.67404 58.3203 9.60188C58.3203 10.5297 59.0725 11.2819 60.0003 11.2819Z" fill="white"/>
<path d="M60.0003 28.0788C60.9282 28.0788 61.6803 27.3266 61.6803 26.3988C61.6803 25.4709 60.9282 24.7188 60.0003 24.7188C59.0725 24.7188 58.3203 25.4709 58.3203 26.3988C58.3203 27.3266 59.0725 28.0788 60.0003 28.0788Z" fill="white"/>
<path d="M61.6797 38.1641V34.8041H59.9997C59.5541 34.8041 59.1268 34.9811 58.8117 35.2961C58.4967 35.6112 58.3197 36.0385 58.3197 36.4841C58.3197 36.9296 58.4967 37.3569 58.8117 37.672C59.1268 37.9871 59.5541 38.1641 59.9997 38.1641" fill="white"/>
<path d="M58.3203 41.5234V44.8834H60.0003C60.4459 44.8834 60.8732 44.7064 61.1883 44.3914C61.5033 44.0763 61.6803 43.649 61.6803 43.2034C61.6803 42.7579 61.5033 42.3306 61.1883 42.0155C60.8732 41.7004 60.4459 41.5234 60.0003 41.5234" fill="white"/>
<path d="M58.3203 51.6016H61.6803V49.9216C61.6803 49.476 61.5033 49.0487 61.1883 48.7336C60.8732 48.4186 60.4459 48.2416 60.0003 48.2416C59.5547 48.2416 59.1274 48.4186 58.8124 48.7336C58.4973 49.0487 58.3203 49.476 58.3203 49.9216" fill="white"/>
<path d="M61.6797 51.6016H58.3197V53.2816C58.3197 53.7271 58.4967 54.1544 58.8117 54.4695C59.1268 54.7846 59.5541 54.9616 59.9997 54.9616C60.4453 54.9616 60.8726 54.7846 61.1876 54.4695C61.5027 54.1544 61.6797 53.7271 61.6797 53.2816" fill="white"/>
<path d="M58.3203 65.0391V68.3991H61.6803V66.7191C61.6803 66.2735 61.5033 65.8462 61.1883 65.5311C60.8732 65.2161 60.4459 65.0391 60.0003 65.0391" fill="white"/>
<path d="M61.6803 68.4062H58.3203V71.7663H61.6803V68.4062Z" fill="white"/>
<path d="M61.6803 71.7656H58.3203V75.1256H61.6803V71.7656Z" fill="white"/>
<path d="M61.6803 75.125H58.3203V78.485H61.6803V75.125Z" fill="white"/>
<path d="M61.6803 78.4844H58.3203V81.8444H61.6803V78.4844Z" fill="white"/>
<path d="M61.6797 85.2031V81.8431H58.3197V83.5231C58.3197 83.9687 58.4967 84.396 58.8117 84.7111C59.1268 85.0261 59.5541 85.2031 59.9997 85.2031" fill="white"/>
<path d="M58.3203 88.5625V91.9225H61.6803V90.2425C61.6803 89.7969 61.5033 89.3696 61.1883 89.0546C60.8732 88.7395 60.4459 88.5625 60.0003 88.5625" fill="white"/>
<path d="M61.6803 91.9219H58.3203V95.2819H61.6803V91.9219Z" fill="white"/>
<path d="M61.6803 98.6406H58.3203V102.001H61.6803V98.6406Z" fill="white"/>
<path d="M58.3203 105.359V108.719H60.0003C60.4459 108.719 60.8732 108.542 61.1883 108.227C61.5033 107.912 61.6803 107.485 61.6803 107.039C61.6803 106.594 61.5033 106.166 61.1883 105.851C60.8732 105.536 60.4459 105.359 60.0003 105.359" fill="white"/>
<path d="M65.0391 7.92188V4.56187H63.3591C62.9135 4.56187 62.4862 4.73887 62.1711 5.05394C61.8561 5.369 61.6791 5.79631 61.6791 6.24187C61.6791 6.68744 61.8561 7.11475 62.1711 7.42981C62.4862 7.74488 62.9135 7.92187 63.3591 7.92188" fill="white"/>
<path d="M61.6797 21.3594H65.0397V17.9994H63.3597C62.9141 17.9994 62.4868 18.1764 62.1717 18.4914C61.8567 18.8065 61.6797 19.2338 61.6797 19.6794" fill="white"/>
<path d="M65.0391 24.7188V21.3587H61.6791V23.0387C61.6791 23.4843 61.8561 23.9116 62.1711 24.2267C62.4862 24.5417 62.9135 24.7188 63.3591 24.7188" fill="white"/>
<path d="M65.0397 34.8047H61.6797V38.1647H65.0397V34.8047Z" fill="white"/>
<path d="M65.0391 38.1641H61.6791V39.8441C61.6791 40.2896 61.8561 40.7169 62.1711 41.032C62.4862 41.3471 62.9135 41.5241 63.3591 41.5241C63.8046 41.5241 64.2319 41.3471 64.547 41.032C64.8621 40.7169 65.0391 40.2896 65.0391 39.8441" fill="white"/>
<path d="M65.0391 58.3203V54.9603H63.3591C62.9135 54.9603 62.4862 55.1373 62.1711 55.4524C61.8561 55.7674 61.6791 56.1947 61.6791 56.6403C61.6791 57.0859 61.8561 57.5132 62.1711 57.8283C62.4862 58.1433 62.9135 58.3203 63.3591 58.3203" fill="white"/>
<path d="M65.0391 65.0391V61.6791H63.3591C62.9135 61.6791 62.4862 61.8561 62.1711 62.1711C61.8561 62.4862 61.6791 62.9135 61.6791 63.3591C61.6791 63.8046 61.8561 64.2319 62.1711 64.547C62.4862 64.8621 62.9135 65.0391 63.3591 65.0391" fill="white"/>
<path d="M65.0397 75.125H61.6797V78.485H65.0397V75.125Z" fill="white"/>
<path d="M61.6797 81.8438V85.2038H63.3597C63.8053 85.2038 64.2326 85.0267 64.5476 84.7117C64.8627 84.3966 65.0397 83.9693 65.0397 83.5238C65.0397 83.0782 64.8627 82.6509 64.5476 82.3358C64.2326 82.0208 63.8053 81.8438 63.3597 81.8438" fill="white"/>
<path d="M65.0397 91.9219H61.6797V95.2819H65.0397V91.9219Z" fill="white"/>
<path d="M65.0397 98.6406H61.6797V102.001H65.0397V98.6406Z" fill="white"/>
<path d="M65.0391 102H61.6791V103.68C61.6791 104.126 61.8561 104.553 62.1711 104.868C62.4862 105.183 62.9135 105.36 63.3591 105.36C63.8046 105.36 64.2319 105.183 64.547 104.868C64.8621 104.553 65.0391 104.126 65.0391 103.68" fill="white"/>
<path d="M63.3597 115.446C64.2875 115.446 65.0397 114.694 65.0397 113.766C65.0397 112.838 64.2875 112.086 63.3597 112.086C62.4318 112.086 61.6797 112.838 61.6797 113.766C61.6797 114.694 62.4318 115.446 63.3597 115.446Z" fill="white"/>
<path d="M68.3991 4.5625H65.0391V7.9225H68.3991V4.5625Z" fill="white"/>
<path d="M68.3991 7.92188H65.0391V11.2819H68.3991V7.92188Z" fill="white"/>
<path d="M68.3991 11.2812H65.0391V14.6413H68.3991V11.2812Z" fill="white"/>
<path d="M68.3991 14.6406H65.0391V18.0006H68.3991V14.6406Z" fill="white"/>
<path d="M68.3991 18H65.0391V21.36H68.3991V18Z" fill="white"/>
<path d="M68.3991 21.3594H65.0391V24.7194H68.3991V21.3594Z" fill="white"/>
<path d="M68.3991 24.7188H65.0391V28.0788H68.3991V24.7188Z" fill="white"/>
<path d="M68.4062 28.0859H65.0462V29.7659C65.0462 30.2115 65.2232 30.6388 65.5383 30.9539C65.8534 31.2689 66.2807 31.4459 66.7262 31.4459C67.1718 31.4459 67.5991 31.2689 67.9142 30.9539C68.2292 30.6388 68.4062 30.2115 68.4062 29.7659" fill="white"/>
<path d="M65.0391 34.8047V38.1647H66.7191C67.1646 38.1647 67.5919 37.9877 67.907 37.6726C68.2221 37.3576 68.3991 36.9303 68.3991 36.4847C68.3991 36.0391 68.2221 35.6118 67.907 35.2967C67.5919 34.9817 67.1646 34.8047 66.7191 34.8047" fill="white"/>
<path d="M65.0391 48.2422H68.3991V44.8822H66.7191C66.2735 44.8822 65.8462 45.0592 65.5311 45.3743C65.2161 45.6893 65.0391 46.1166 65.0391 46.5622" fill="white"/>
<path d="M68.3991 48.2422H65.0391V51.6022H68.3991V48.2422Z" fill="white"/>
<path d="M68.3991 51.6016H65.0391V54.9616H68.3991V51.6016Z" fill="white"/>
<path d="M68.3991 54.9609H65.0391V58.3209H68.3991V54.9609Z" fill="white"/>
<path d="M68.3991 58.3203H65.0391V61.6803H68.3991V58.3203Z" fill="white"/>
<path d="M68.3991 61.6797H65.0391V65.0397H68.3991V61.6797Z" fill="white"/>
<path d="M68.4062 68.4062V65.0462H65.0462V66.7262C65.0462 67.1718 65.2233 67.5991 65.5383 67.9142C65.8534 68.2292 66.2807 68.4062 66.7262 68.4062" fill="white"/>
<path d="M65.0391 75.125H68.3991V73.445C68.3991 72.9994 68.2221 72.5721 67.907 72.2571C67.5919 71.942 67.1646 71.765 66.7191 71.765C66.2735 71.765 65.8462 71.942 65.5311 72.2571C65.2161 72.5721 65.0391 72.9994 65.0391 73.445" fill="white"/>
<path d="M68.4062 75.125H65.0462V78.485H66.7262C67.1718 78.485 67.5991 78.308 67.9142 77.9929C68.2292 77.6779 68.4062 77.2506 68.4062 76.805" fill="white"/>
<path d="M65.0391 91.9219H68.3991V88.5619H66.7191C66.2735 88.5619 65.8462 88.7389 65.5311 89.0539C65.2161 89.369 65.0391 89.7963 65.0391 90.2419" fill="white"/>
<path d="M68.3991 91.9219H65.0391V95.2819H68.3991V91.9219Z" fill="white"/>
<path d="M68.3991 95.2812H65.0391V98.6413H68.3991V95.2812Z" fill="white"/>
<path d="M68.3991 98.6406H65.0391V102.001H68.3991V98.6406Z" fill="white"/>
<path d="M65.0391 108.719H68.3991V107.039C68.3991 106.593 68.2221 106.166 67.907 105.851C67.5919 105.536 67.1646 105.359 66.7191 105.359C66.2735 105.359 65.8462 105.536 65.5311 105.851C65.2161 106.166 65.0391 106.593 65.0391 107.039" fill="white"/>
<path d="M68.4062 112.086V108.726H65.0462V110.406C65.0462 110.852 65.2233 111.279 65.5383 111.594C65.8534 111.909 66.2807 112.086 66.7262 112.086" fill="white"/>
<path d="M68.4062 4.5625V7.9225H70.0863C70.5318 7.9225 70.9591 7.7455 71.2742 7.43044C71.5892 7.11538 71.7663 6.68806 71.7663 6.2425C71.7663 5.79694 71.5892 5.36962 71.2742 5.05456C70.9591 4.7395 70.5318 4.5625 70.0863 4.5625" fill="white"/>
<path d="M71.7663 14.6406H68.4062V18.0006H71.7663V14.6406Z" fill="white"/>
<path d="M68.4062 41.5234H71.7663V39.8434C71.7663 39.3979 71.5893 38.9706 71.2742 38.6555C70.9591 38.3404 70.5318 38.1634 70.0863 38.1634C69.6407 38.1634 69.2134 38.3404 68.8983 38.6555C68.5832 38.9706 68.4062 39.3979 68.4062 39.8434" fill="white"/>
<path d="M71.7663 41.5234H68.4062V44.8834H71.7663V41.5234Z" fill="white"/>
<path d="M71.7656 44.8828H68.4056V48.2428H70.0856C70.5312 48.2428 70.9585 48.0658 71.2736 47.7507C71.5886 47.4357 71.7656 47.0084 71.7656 46.5628" fill="white"/>
<path d="M71.7663 54.9609H68.4062V58.3209H71.7663V54.9609Z" fill="white"/>
<path d="M71.7663 65.0391H68.4062V68.3991H71.7663V65.0391Z" fill="white"/>
<path d="M68.4062 88.5625H71.7663V85.2025H70.0863C69.6407 85.2025 69.2134 85.3795 68.8983 85.6946C68.5833 86.0096 68.4062 86.4369 68.4062 86.8825" fill="white"/>
<path d="M71.7663 88.5625H68.4062V91.9225H71.7663V88.5625Z" fill="white"/>
<path d="M71.7656 91.9219H68.4056V95.2819H70.0856C70.5312 95.2819 70.9585 95.1049 71.2736 94.7898C71.5886 94.4748 71.7656 94.0474 71.7656 93.6019" fill="white"/>
<path d="M68.4062 98.6406V102.001H70.0863C70.5318 102.001 70.9591 101.824 71.2742 101.509C71.5892 101.194 71.7663 100.766 71.7663 100.321C71.7663 99.8751 71.5892 99.4477 71.2742 99.1327C70.9591 98.8176 70.5318 98.6406 70.0863 98.6406" fill="white"/>
<path d="M68.4062 108.719V112.079H70.0863C70.5318 112.079 70.9591 111.902 71.2742 111.587C71.5892 111.272 71.7663 110.844 71.7663 110.399C71.7663 109.953 71.5892 109.526 71.2742 109.211C70.9591 108.896 70.5318 108.719 70.0863 108.719" fill="white"/>
<path d="M71.7656 14.6406H75.1256V11.2806H73.4456C73.0001 11.2806 72.5727 11.4576 72.2577 11.7727C71.9426 12.0877 71.7656 12.5151 71.7656 12.9606" fill="white"/>
<path d="M75.125 14.6406H71.765V18.0006H73.445C73.8906 18.0006 74.3179 17.8236 74.6329 17.5086C74.948 17.1935 75.125 16.7662 75.125 16.3206" fill="white"/>
<path d="M71.7656 28.0859H75.1256V26.4059C75.1256 25.9604 74.9486 25.5331 74.6336 25.218C74.3185 24.9029 73.8912 24.7259 73.4456 24.7259C73.0001 24.7259 72.5727 24.9029 72.2577 25.218C71.9426 25.5331 71.7656 25.9604 71.7656 26.4059" fill="white"/>
<path d="M75.125 31.4453V28.0853H71.765V29.7653C71.765 30.2109 71.942 30.6382 72.2571 30.9533C72.5721 31.2683 72.9994 31.4453 73.445 31.4453" fill="white"/>
<path d="M73.4456 38.1647C74.3735 38.1647 75.1256 37.4125 75.1256 36.4847C75.1256 35.5568 74.3735 34.8047 73.4456 34.8047C72.5178 34.8047 71.7656 35.5568 71.7656 36.4847C71.7656 37.4125 72.5178 38.1647 73.4456 38.1647Z" fill="white"/>
<path d="M71.7656 41.5234V44.8834H73.4456C73.8912 44.8834 74.3185 44.7064 74.6336 44.3914C74.9486 44.0763 75.1256 43.649 75.1256 43.2034C75.1256 42.7579 74.9486 42.3306 74.6336 42.0155C74.3185 41.7004 73.8912 41.5234 73.4456 41.5234" fill="white"/>
<path d="M75.125 51.6016V48.2416H73.445C72.9994 48.2416 72.5721 48.4186 72.2571 48.7336C71.942 49.0487 71.765 49.476 71.765 49.9216C71.765 50.3671 71.942 50.7944 72.2571 51.1095C72.5721 51.4246 72.9994 51.6016 73.445 51.6016" fill="white"/>
<path d="M71.7656 54.9609V58.3209H75.1256V56.6409C75.1256 56.1954 74.9486 55.7681 74.6336 55.453C74.3185 55.1379 73.8912 54.9609 73.4456 54.9609" fill="white"/>
<path d="M75.125 61.6797V58.3197H71.765V59.9997C71.765 60.4453 71.942 60.8726 72.2571 61.1876C72.5721 61.5027 72.9994 61.6797 73.445 61.6797" fill="white"/>
<path d="M75.1256 65.0391H71.7656V68.3991H75.1256V65.0391Z" fill="white"/>
<path d="M75.125 68.4062H71.765V70.0863C71.765 70.5318 71.942 70.9591 72.2571 71.2742C72.5721 71.5892 72.9994 71.7663 73.445 71.7663C73.8906 71.7663 74.3179 71.5892 74.6329 71.2742C74.948 70.9591 75.125 70.5318 75.125 70.0863" fill="white"/>
<path d="M71.7656 85.2031V88.5631H73.4456C73.8912 88.5631 74.3185 88.3861 74.6336 88.0711C74.9486 87.756 75.1256 87.3287 75.1256 86.8831C75.1256 86.4376 74.9486 86.0102 74.6336 85.6952C74.3185 85.3801 73.8912 85.2031 73.4456 85.2031" fill="white"/>
<path d="M75.125 98.6406V95.2806H73.445C72.9994 95.2806 72.5721 95.4576 72.2571 95.7727C71.942 96.0877 71.765 96.5151 71.765 96.9606C71.765 97.4062 71.942 97.8335 72.2571 98.1486C72.5721 98.4636 72.9994 98.6406 73.445 98.6406" fill="white"/>
<path d="M71.7656 105.359H75.1256V101.999H73.4456C73.0001 101.999 72.5727 102.176 72.2577 102.491C71.9426 102.806 71.7656 103.234 71.7656 103.679" fill="white"/>
<path d="M75.125 108.719V105.359H71.765V107.039C71.765 107.484 71.942 107.912 72.2571 108.227C72.5721 108.542 72.9994 108.719 73.445 108.719" fill="white"/>
<path d="M75.125 115.445V112.085H73.445C72.9994 112.085 72.5721 112.262 72.2571 112.577C71.942 112.892 71.765 113.32 71.765 113.765C71.765 114.211 71.942 114.638 72.2571 114.953C72.5721 115.268 72.9994 115.445 73.445 115.445" fill="white"/>
<path d="M75.125 7.92188H78.485V6.24187C78.485 5.79631 78.308 5.369 77.9929 5.05394C77.6779 4.73888 77.2506 4.56187 76.805 4.56187C76.3594 4.56187 75.9321 4.73888 75.6171 5.05394C75.302 5.369 75.125 5.79631 75.125 6.24187" fill="white"/>
<path d="M78.485 7.92188H75.125V11.2819H78.485V7.92188Z" fill="white"/>
<path d="M78.485 11.2812H75.125V14.6413H78.485V11.2812Z" fill="white"/>
<path d="M78.485 28.0859H75.125V31.4459H78.485V28.0859Z" fill="white"/>
<path d="M75.125 48.2422H78.485V46.5622C78.485 46.1166 78.308 45.6893 77.9929 45.3743C77.6779 45.0592 77.2506 44.8822 76.805 44.8822C76.3594 44.8822 75.9321 45.0592 75.6171 45.3743C75.302 45.6893 75.125 46.1166 75.125 46.5622" fill="white"/>
<path d="M78.485 48.2422H75.125V51.6022H78.485V48.2422Z" fill="white"/>
<path d="M78.4844 54.9609V51.6009H75.1244V53.2809C75.1244 53.7265 75.3014 54.1538 75.6164 54.4689C75.9315 54.7839 76.3588 54.9609 76.8044 54.9609" fill="white"/>
<path d="M75.125 58.3203V61.6803H76.805C77.2506 61.6803 77.6779 61.5033 77.9929 61.1883C78.308 60.8732 78.485 60.4459 78.485 60.0003C78.485 59.5547 78.308 59.1274 77.9929 58.8124C77.6779 58.4973 77.2506 58.3203 76.805 58.3203" fill="white"/>
<path d="M75.125 65.0391V68.3991H76.805C77.2506 68.3991 77.6779 68.2221 77.9929 67.907C78.308 67.5919 78.485 67.1646 78.485 66.7191C78.485 66.2735 78.308 65.8462 77.9929 65.5311C77.6779 65.2161 77.2506 65.0391 76.805 65.0391" fill="white"/>
<path d="M75.125 75.125H78.485V73.445C78.485 72.9994 78.308 72.5721 77.9929 72.2571C77.6779 71.942 77.2506 71.765 76.805 71.765C76.3594 71.765 75.9321 71.942 75.6171 72.2571C75.302 72.5721 75.125 72.9994 75.125 73.445" fill="white"/>
<path d="M78.4844 75.125H75.1244V76.805C75.1244 77.2506 75.3014 77.6779 75.6164 77.9929C75.9315 78.308 76.3588 78.485 76.8044 78.485C77.2499 78.485 77.6773 78.308 77.9923 77.9929C78.3074 77.6779 78.4844 77.2506 78.4844 76.805" fill="white"/>
<path d="M78.4844 85.2031V81.8431H76.8044C76.3588 81.8431 75.9315 82.0201 75.6164 82.3352C75.3014 82.6502 75.1244 83.0776 75.1244 83.5231C75.1244 83.9687 75.3014 84.396 75.6164 84.7111C75.9315 85.0261 76.3588 85.2031 76.8044 85.2031" fill="white"/>
<path d="M75.125 95.2812V98.6413H76.805C77.2506 98.6413 77.6779 98.4642 77.9929 98.1492C78.308 97.8341 78.485 97.4068 78.485 96.9613C78.485 96.5157 78.308 96.0884 77.9929 95.7733C77.6779 95.4583 77.2506 95.2812 76.805 95.2812" fill="white"/>
<path d="M78.485 102H75.125V105.36H78.485V102Z" fill="white"/>
<path d="M78.4844 105.359H75.1244V108.719H76.8044C77.2499 108.719 77.6773 108.542 77.9923 108.227C78.3074 107.912 78.4844 107.485 78.4844 107.039" fill="white"/>
<path d="M78.485 112.086H75.125V115.446H78.485V112.086Z" fill="white"/>
<path d="M81.8444 11.2812H78.4844V14.6413H81.8444V11.2812Z" fill="white"/>
<path d="M78.4844 28.0859H81.8444V26.4059C81.8444 25.9604 81.6674 25.5331 81.3523 25.218C81.0373 24.9029 80.6099 24.7259 80.1644 24.7259C79.7188 24.7259 79.2915 24.9029 78.9764 25.218C78.6614 25.5331 78.4844 25.9604 78.4844 26.4059" fill="white"/>
<path d="M81.8444 28.0859H78.4844V31.4459H81.8444V28.0859Z" fill="white"/>
<path d="M81.8444 31.4453H78.4844V34.8053H81.8444V31.4453Z" fill="white"/>
<path d="M81.8444 34.8047H78.4844V38.1647H81.8444V34.8047Z" fill="white"/>
<path d="M81.8444 38.1641H78.4844V41.5241H81.8444V38.1641Z" fill="white"/>
<path d="M81.8438 41.5234H78.4837V43.2034C78.4837 43.649 78.6607 44.0763 78.9758 44.3914C79.2909 44.7064 79.7182 44.8834 80.1637 44.8834C80.6093 44.8834 81.0366 44.7064 81.3517 44.3914C81.6668 44.0763 81.8438 43.649 81.8438 43.2034" fill="white"/>
<path d="M81.8444 48.2422H78.4844V51.6022H81.8444V48.2422Z" fill="white"/>
<path d="M81.8444 51.6016H78.4844V54.9616H81.8444V51.6016Z" fill="white"/>
<path d="M81.8438 54.9609H78.4837V56.6409C78.4837 57.0865 78.6607 57.5138 78.9758 57.8289C79.2909 58.1439 79.7182 58.3209 80.1637 58.3209C80.6093 58.3209 81.0366 58.1439 81.3517 57.8289C81.6668 57.5138 81.8438 57.0865 81.8438 56.6409" fill="white"/>
<path d="M78.4844 81.8438H81.8444V78.4837H80.1644C79.7188 78.4837 79.2915 78.6608 78.9764 78.9758C78.6614 79.2909 78.4844 79.7182 78.4844 80.1637" fill="white"/>
<path d="M81.8444 81.8438H78.4844V85.2038H81.8444V81.8438Z" fill="white"/>
<path d="M81.8444 85.2031H78.4844V88.5631H81.8444V85.2031Z" fill="white"/>
<path d="M81.8444 88.5625H78.4844V91.9225H81.8444V88.5625Z" fill="white"/>
<path d="M81.8438 95.2812V91.9212H78.4837V93.6012C78.4837 94.0468 78.6608 94.4741 78.9758 94.7892C79.2909 95.1042 79.7182 95.2812 80.1637 95.2812" fill="white"/>
<path d="M81.8444 102H78.4844V105.36H81.8444V102Z" fill="white"/>
<path d="M78.4844 112.086H81.8444V110.406C81.8444 109.96 81.6674 109.533 81.3523 109.218C81.0373 108.903 80.6099 108.726 80.1644 108.726C79.7188 108.726 79.2915 108.903 78.9764 109.218C78.6614 109.533 78.4844 109.96 78.4844 110.406" fill="white"/>
<path d="M81.8444 112.086H78.4844V115.446H81.8444V112.086Z" fill="white"/>
<path d="M81.8438 11.2812H85.2038V9.60125C85.2038 9.15569 85.0268 8.72837 84.7117 8.41331C84.3966 8.09825 83.9693 7.92125 83.5238 7.92125C83.0782 7.92125 82.6509 8.09825 82.3358 8.41331C82.0207 8.72837 81.8438 9.15569 81.8438 9.60125" fill="white"/>
<path d="M85.2031 11.2812H81.8431V14.6413H83.5231C83.9687 14.6413 84.396 14.4642 84.7111 14.1492C85.0261 13.8341 85.2031 13.4068 85.2031 12.9613" fill="white"/>
<path d="M83.5238 21.36C84.4516 21.36 85.2038 20.6078 85.2038 19.68C85.2038 18.7522 84.4516 18 83.5238 18C82.5959 18 81.8438 18.7522 81.8438 19.68C81.8438 20.6078 82.5959 21.36 83.5238 21.36Z" fill="white"/>
<path d="M81.8438 31.4453V34.8053H85.2038V33.1253C85.2038 32.6797 85.0267 32.2524 84.7117 31.9374C84.3966 31.6223 83.9693 31.4453 83.5238 31.4453" fill="white"/>
<path d="M85.2038 34.8047H81.8438V38.1647H85.2038V34.8047Z" fill="white"/>
<path d="M85.2031 38.1641H81.8431V41.5241H83.5231C83.9687 41.5241 84.396 41.3471 84.7111 41.032C85.0261 40.7169 85.2031 40.2896 85.2031 39.8441" fill="white"/>
<path d="M81.8438 48.2422H85.2038V44.8822H83.5238C83.0782 44.8822 82.6509 45.0592 82.3358 45.3743C82.0207 45.6893 81.8438 46.1166 81.8438 46.5622" fill="white"/>
<path d="M85.2031 48.2422H81.8431V51.6022H83.5231C83.9687 51.6022 84.396 51.4252 84.7111 51.1101C85.0261 50.7951 85.2031 50.3678 85.2031 49.9222" fill="white"/>
<path d="M81.8438 61.6797H85.2038V58.3197H83.5238C83.0782 58.3197 82.6509 58.4967 82.3358 58.8118C82.0207 59.1268 81.8438 59.5541 81.8438 59.9997" fill="white"/>
<path d="M85.2038 61.6797H81.8438V65.0397H85.2038V61.6797Z" fill="white"/>
<path d="M85.2031 68.4062V65.0462H81.8431V66.7262C81.8431 67.1718 82.0201 67.5991 82.3352 67.9142C82.6502 68.2292 83.0776 68.4062 83.5231 68.4062" fill="white"/>
<path d="M85.2038 78.4844H81.8438V81.8444H85.2038V78.4844Z" fill="white"/>
<path d="M85.2038 85.2031H81.8438V88.5631H85.2038V85.2031Z" fill="white"/>
<path d="M85.2038 91.9219H81.8438V95.2819H85.2038V91.9219Z" fill="white"/>
<path d="M81.8438 102V105.36H83.5238C83.9693 105.36 84.3966 105.183 84.7117 104.868C85.0267 104.553 85.2038 104.126 85.2038 103.68C85.2038 103.234 85.0267 102.807 84.7117 102.492C84.3966 102.177 83.9693 102 83.5238 102" fill="white"/>
<path d="M85.2038 112.086H81.8438V115.446H85.2038V112.086Z" fill="white"/>
<path d="M86.8831 7.9225C87.811 7.9225 88.5631 7.17034 88.5631 6.2425C88.5631 5.31466 87.811 4.5625 86.8831 4.5625C85.9553 4.5625 85.2031 5.31466 85.2031 6.2425C85.2031 7.17034 85.9553 7.9225 86.8831 7.9225Z" fill="white"/>
<path d="M86.8831 18.0006C87.811 18.0006 88.5631 17.2485 88.5631 16.3206C88.5631 15.3928 87.811 14.6406 86.8831 14.6406C85.9553 14.6406 85.2031 15.3928 85.2031 16.3206C85.2031 17.2485 85.9553 18.0006 86.8831 18.0006Z" fill="white"/>
<path d="M85.2031 24.7188H88.5631V23.0387C88.5631 22.5932 88.3861 22.1659 88.0711 21.8508C87.756 21.5358 87.3287 21.3587 86.8831 21.3587C86.4376 21.3587 86.0102 21.5358 85.6952 21.8508C85.3801 22.1659 85.2031 22.5932 85.2031 23.0387" fill="white"/>
<path d="M88.5631 24.7188H85.2031V28.0788H88.5631V24.7188Z" fill="white"/>
<path d="M88.5625 28.0859H85.2025V29.7659C85.2025 30.2115 85.3795 30.6388 85.6946 30.9539C86.0096 31.2689 86.4369 31.4459 86.8825 31.4459C87.3281 31.4459 87.7554 31.2689 88.0704 30.9539C88.3855 30.6388 88.5625 30.2115 88.5625 29.7659" fill="white"/>
<path d="M85.2031 44.8828V48.2428H86.8831C87.3287 48.2428 87.756 48.0658 88.0711 47.7508C88.3861 47.4357 88.5631 47.0084 88.5631 46.5628C88.5631 46.1172 88.3861 45.6899 88.0711 45.3749C87.756 45.0598 87.3287 44.8828 86.8831 44.8828" fill="white"/>
<path d="M85.2031 58.3203H88.5631V54.9603H86.8831C86.4376 54.9603 86.0102 55.1373 85.6952 55.4524C85.3801 55.7674 85.2031 56.1947 85.2031 56.6403" fill="white"/>
<path d="M88.5625 58.3203H85.2025V61.6803H86.8825C87.3281 61.6803 87.7554 61.5033 88.0704 61.1882C88.3855 60.8732 88.5625 60.4459 88.5625 60.0003" fill="white"/>
<path d="M88.5631 65.0391H85.2031V68.3991H88.5631V65.0391Z" fill="white"/>
<path d="M88.5631 78.4844H85.2031V81.8444H88.5631V78.4844Z" fill="white"/>
<path d="M88.5631 81.8438H85.2031V85.2038H88.5631V81.8438Z" fill="white"/>
<path d="M88.5631 85.2031H85.2031V88.5631H88.5631V85.2031Z" fill="white"/>
<path d="M88.5631 88.5625H85.2031V91.9225H88.5631V88.5625Z" fill="white"/>
<path d="M88.5631 91.9219H85.2031V95.2819H88.5631V91.9219Z" fill="white"/>
<path d="M88.5631 95.2812H85.2031V98.6413H88.5631V95.2812Z" fill="white"/>
<path d="M88.5625 102V98.64H85.2025V100.32C85.2025 100.766 85.3795 101.193 85.6946 101.508C86.0096 101.823 86.4369 102 86.8825 102" fill="white"/>
<path d="M85.2031 112.086V115.446H86.8831C87.3287 115.446 87.756 115.269 88.0711 114.954C88.3861 114.639 88.5631 114.212 88.5631 113.766C88.5631 113.32 88.3861 112.893 88.0711 112.578C87.756 112.263 87.3287 112.086 86.8831 112.086" fill="white"/>
<path d="M88.5625 34.8047H91.9225V33.1247C91.9225 32.6791 91.7455 32.2518 91.4304 31.9368C91.1154 31.6217 90.6881 31.4447 90.2425 31.4447C89.7969 31.4447 89.3696 31.6217 89.0546 31.9368C88.7395 32.2518 88.5625 32.6791 88.5625 33.1247" fill="white"/>
<path d="M91.9219 38.1641V34.8041H88.5619V36.4841C88.5619 36.9296 88.7389 37.3569 89.0539 37.672C89.369 37.9871 89.7963 38.1641 90.2419 38.1641" fill="white"/>
<path d="M90.2425 44.8834C91.1703 44.8834 91.9225 44.1313 91.9225 43.2034C91.9225 42.2756 91.1703 41.5234 90.2425 41.5234C89.3147 41.5234 88.5625 42.2756 88.5625 43.2034C88.5625 44.1313 89.3147 44.8834 90.2425 44.8834Z" fill="white"/>
<path d="M90.2425 51.6022C91.1703 51.6022 91.9225 50.85 91.9225 49.9222C91.9225 48.9943 91.1703 48.2422 90.2425 48.2422C89.3147 48.2422 88.5625 48.9943 88.5625 49.9222C88.5625 50.85 89.3147 51.6022 90.2425 51.6022Z" fill="white"/>
<path d="M88.5625 54.9609V58.3209H90.2425C90.6881 58.3209 91.1154 58.1439 91.4304 57.8289C91.7455 57.5138 91.9225 57.0865 91.9225 56.6409C91.9225 56.1954 91.7455 55.7681 91.4304 55.453C91.1154 55.1379 90.6881 54.9609 90.2425 54.9609" fill="white"/>
<path d="M91.9225 65.0391H88.5625V68.3991H91.9225V65.0391Z" fill="white"/>
<path d="M91.9219 71.7656V68.4056H88.5619V70.0856C88.5619 70.5312 88.7389 70.9585 89.0539 71.2736C89.369 71.5886 89.7963 71.7656 90.2419 71.7656" fill="white"/>
<path d="M88.5625 78.4844V81.8444H90.2425C90.6881 81.8444 91.1154 81.6674 91.4304 81.3523C91.7455 81.0373 91.9225 80.6099 91.9225 80.1644C91.9225 79.7188 91.7455 79.2915 91.4304 78.9764C91.1154 78.6614 90.6881 78.4844 90.2425 78.4844" fill="white"/>
<path d="M91.9225 85.2031H88.5625V88.5631H91.9225V85.2031Z" fill="white"/>
<path d="M91.9225 98.6406H88.5625V102.001H91.9225V98.6406Z" fill="white"/>
<path d="M91.9219 102H88.5619V103.68C88.5619 104.126 88.7389 104.553 89.0539 104.868C89.369 105.183 89.7963 105.36 90.2419 105.36C90.6874 105.36 91.1148 105.183 91.4298 104.868C91.7449 104.553 91.9219 104.126 91.9219 103.68" fill="white"/>
<path d="M95.2819 34.8047H91.9219V38.1647H95.2819V34.8047Z" fill="white"/>
<path d="M95.2812 48.2422V44.8822H93.6012C93.1557 44.8822 92.7284 45.0592 92.4133 45.3742C92.0983 45.6893 91.9212 46.1166 91.9212 46.5622C91.9212 47.0078 92.0983 47.4351 92.4133 47.7501C92.7284 48.0652 93.1557 48.2422 93.6012 48.2422" fill="white"/>
<path d="M93.6019 54.9616C94.5297 54.9616 95.2819 54.2094 95.2819 53.2816C95.2819 52.3537 94.5297 51.6016 93.6019 51.6016C92.674 51.6016 91.9219 52.3537 91.9219 53.2816C91.9219 54.2094 92.674 54.9616 93.6019 54.9616Z" fill="white"/>
<path d="M91.9219 65.0391H95.2819V63.3591C95.2819 62.9135 95.1049 62.4862 94.7898 62.1711C94.4748 61.8561 94.0474 61.6791 93.6019 61.6791C93.1563 61.6791 92.729 61.8561 92.4139 62.1711C92.0989 62.4862 91.9219 62.9135 91.9219 63.3591" fill="white"/>
<path d="M95.2819 65.0391H91.9219V68.3991H95.2819V65.0391Z" fill="white"/>
<path d="M95.2819 68.4062H91.9219V71.7663H95.2819V68.4062Z" fill="white"/>
<path d="M91.9219 85.2031H95.2819V81.8431H93.6019C93.1563 81.8431 92.729 82.0201 92.4139 82.3352C92.0989 82.6502 91.9219 83.0776 91.9219 83.5231" fill="white"/>
<path d="M95.2819 85.2031H91.9219V88.5631H95.2819V85.2031Z" fill="white"/>
<path d="M93.6019 95.2819C94.5297 95.2819 95.2819 94.5297 95.2819 93.6019C95.2819 92.674 94.5297 91.9219 93.6019 91.9219C92.674 91.9219 91.9219 92.674 91.9219 93.6019C91.9219 94.5297 92.674 95.2819 93.6019 95.2819Z" fill="white"/>
<path d="M95.2819 98.6406H91.9219V102.001H95.2819V98.6406Z" fill="white"/>
<path d="M95.2812 112.086V108.726H93.6012C93.1557 108.726 92.7284 108.903 92.4133 109.218C92.0983 109.533 91.9212 109.96 91.9212 110.406C91.9212 110.852 92.0983 111.279 92.4133 111.594C92.7284 111.909 93.1557 112.086 93.6012 112.086" fill="white"/>
<path d="M95.2812 34.8047H98.6413V33.1247C98.6413 32.6791 98.4643 32.2518 98.1492 31.9368C97.8341 31.6217 97.4068 31.4447 96.9613 31.4447C96.5157 31.4447 96.0884 31.6217 95.7733 31.9368C95.4582 32.2518 95.2812 32.6791 95.2812 33.1247" fill="white"/>
<path d="M98.6413 34.8047H95.2812V38.1647H98.6413V34.8047Z" fill="white"/>
<path d="M98.6413 44.8828H95.2812V48.2428H98.6413V44.8828Z" fill="white"/>
<path d="M95.2812 58.3203H98.6413V56.6403C98.6413 56.1947 98.4643 55.7674 98.1492 55.4524C97.8341 55.1373 97.4068 54.9603 96.9613 54.9603C96.5157 54.9603 96.0884 55.1373 95.7733 55.4524C95.4582 55.7674 95.2812 56.1947 95.2812 56.6403" fill="white"/>
<path d="M98.6406 61.6797V58.3197H95.2806V59.9997C95.2806 60.4453 95.4576 60.8726 95.7727 61.1876C96.0877 61.5027 96.5151 61.6797 96.9606 61.6797" fill="white"/>
<path d="M95.2812 65.0391V68.3991H98.6413V66.7191C98.6413 66.2735 98.4642 65.8462 98.1492 65.5311C97.8341 65.2161 97.4068 65.0391 96.9613 65.0391" fill="white"/>
<path d="M98.6406 68.4062H95.2806V71.7663H96.9606C97.4062 71.7663 97.8335 71.5892 98.1486 71.2742C98.4636 70.9591 98.6406 70.5318 98.6406 70.0863" fill="white"/>
<path d="M95.2812 78.4844H98.6413V75.1244H96.9613C96.5157 75.1244 96.0884 75.3014 95.7733 75.6164C95.4583 75.9315 95.2812 76.3588 95.2812 76.8044" fill="white"/>
<path d="M98.6413 78.4844H95.2812V81.8444H98.6413V78.4844Z" fill="white"/>
<path d="M98.6413 81.8438H95.2812V85.2038H98.6413V81.8438Z" fill="white"/>
<path d="M98.6413 85.2031H95.2812V88.5631H98.6413V85.2031Z" fill="white"/>
<path d="M98.6413 98.6406H95.2812V102.001H98.6413V98.6406Z" fill="white"/>
<path d="M98.6413 102H95.2812V105.36H98.6413V102Z" fill="white"/>
<path d="M98.6413 105.359H95.2812V108.719H98.6413V105.359Z" fill="white"/>
<path d="M98.6413 108.719H95.2812V112.079H98.6413V108.719Z" fill="white"/>
<path d="M102.001 34.8047H98.6406V38.1647H102.001V34.8047Z" fill="white"/>
<path d="M98.6406 44.8828H102.001V41.5228H100.321C99.8751 41.5228 99.4477 41.6998 99.1327 42.0149C98.8176 42.3299 98.6406 42.7572 98.6406 43.2028" fill="white"/>
<path d="M102.001 44.8828H98.6406V48.2428H102.001V44.8828Z" fill="white"/>
<path d="M102.001 48.2422H98.6406V51.6022H102.001V48.2422Z" fill="white"/>
<path d="M102 54.9609V51.6009H98.64V53.2809C98.64 53.7265 98.817 54.1538 99.1321 54.4689C99.4471 54.7839 99.8744 54.9609 100.32 54.9609" fill="white"/>
<path d="M102.001 58.3203H98.6406V61.6803H102.001V58.3203Z" fill="white"/>
<path d="M102 61.6797H98.64V63.3597C98.64 63.8053 98.817 64.2326 99.1321 64.5476C99.4471 64.8627 99.8744 65.0397 100.32 65.0397C100.766 65.0397 101.193 64.8627 101.508 64.5476C101.823 64.2326 102 63.8053 102 63.3597" fill="white"/>
<path d="M98.6406 75.125V78.485H102.001V76.805C102.001 76.3594 101.824 75.9321 101.509 75.6171C101.194 75.302 100.766 75.125 100.321 75.125" fill="white"/>
<path d="M102.001 78.4844H98.6406V81.8444H102.001V78.4844Z" fill="white"/>
<path d="M102.001 81.8438H98.6406V85.2038H102.001V81.8438Z" fill="white"/>
<path d="M102.001 85.2031H98.6406V88.5631H102.001V85.2031Z" fill="white"/>
<path d="M102.001 88.5625H98.6406V91.9225H102.001V88.5625Z" fill="white"/>
<path d="M102.001 91.9219H98.6406V95.2819H102.001V91.9219Z" fill="white"/>
<path d="M102.001 95.2812H98.6406V98.6413H102.001V95.2812Z" fill="white"/>
<path d="M102 98.6406H98.64V102.001H100.32C100.766 102.001 101.193 101.824 101.508 101.509C101.823 101.194 102 100.766 102 100.321" fill="white"/>
<path d="M98.6406 105.359V108.719H102.001V107.039C102.001 106.594 101.824 106.166 101.509 105.851C101.194 105.536 100.766 105.359 100.321 105.359" fill="white"/>
<path d="M102.001 108.719H98.6406V112.079H102.001V108.719Z" fill="white"/>
<path d="M102 34.8047H105.36V31.4447H103.68C103.234 31.4447 102.807 31.6217 102.492 31.9368C102.177 32.2518 102 32.6791 102 33.1247" fill="white"/>
<path d="M105.36 34.8047H102V38.1647H105.36V34.8047Z" fill="white"/>
<path d="M105.36 38.1641H102V41.5241H105.36V38.1641Z" fill="white"/>
<path d="M105.36 41.5234H102V44.8834H105.36V41.5234Z" fill="white"/>
<path d="M105.36 44.8828H102V48.2428H105.36V44.8828Z" fill="white"/>
<path d="M105.36 48.2422H102V51.6022H105.36V48.2422Z" fill="white"/>
<path d="M105.36 51.6016H102V54.9616H105.36V51.6016Z" fill="white"/>
<path d="M102 58.3203V61.6803H103.68C104.126 61.6803 104.553 61.5033 104.868 61.1883C105.183 60.8732 105.36 60.4459 105.36 60.0003C105.36 59.5547 105.183 59.1274 104.868 58.8124C104.553 58.4973 104.126 58.3203 103.68 58.3203" fill="white"/>
<path d="M105.36 78.4844H102V81.8444H105.36V78.4844Z" fill="white"/>
<path d="M105.36 81.8438H102V85.2038H105.36V81.8438Z" fill="white"/>
<path d="M105.36 85.2031H102V88.5631H105.36V85.2031Z" fill="white"/>
<path d="M105.36 95.2812H102V98.6413H105.36V95.2812Z" fill="white"/>
<path d="M102 108.719V112.079H105.36V110.399C105.36 109.953 105.183 109.526 104.868 109.211C104.553 108.896 104.126 108.719 103.68 108.719" fill="white"/>
<path d="M105.359 112.086H101.999V113.766C101.999 114.212 102.176 114.639 102.491 114.954C102.806 115.269 103.234 115.446 103.679 115.446C104.125 115.446 104.552 115.269 104.867 114.954C105.182 114.639 105.359 114.212 105.359 113.766" fill="white"/>
<path d="M108.719 31.4453H105.359V34.8053H108.719V31.4453Z" fill="white"/>
<path d="M108.719 34.8047H105.359V38.1647H108.719V34.8047Z" fill="white"/>
<path d="M108.719 44.8828H105.359V48.2428H108.719V44.8828Z" fill="white"/>
<path d="M108.719 48.2422H105.359V51.6022H108.719V48.2422Z" fill="white"/>
<path d="M108.719 51.6016H105.359V54.9616H108.719V51.6016Z" fill="white"/>
<path d="M108.719 58.3203V54.9603H105.359V56.6403C105.359 57.0859 105.536 57.5132 105.851 57.8283C106.166 58.1433 106.593 58.3203 107.039 58.3203" fill="white"/>
<path d="M105.359 78.4844H108.719V76.8044C108.719 76.3588 108.542 75.9315 108.227 75.6164C107.912 75.3014 107.485 75.1244 107.039 75.1244C106.594 75.1244 106.166 75.3014 105.851 75.6164C105.536 75.9315 105.359 76.3588 105.359 76.8044" fill="white"/>
<path d="M108.719 78.4844H105.359V81.8444H108.719V78.4844Z" fill="white"/>
<path d="M108.719 81.8438H105.359V85.2038H108.719V81.8438Z" fill="white"/>
<path d="M108.719 85.2031H105.359V88.5631H108.719V85.2031Z" fill="white"/>
<path d="M108.719 88.5625H105.359V91.9225H108.719V88.5625Z" fill="white"/>
<path d="M108.719 91.9219H105.359V95.2819H108.719V91.9219Z" fill="white"/>
<path d="M108.719 95.2812H105.359V98.6413H108.719V95.2812Z" fill="white"/>
<path d="M107.039 105.36C107.967 105.36 108.719 104.608 108.719 103.68C108.719 102.752 107.967 102 107.039 102C106.112 102 105.359 102.752 105.359 103.68C105.359 104.608 106.112 105.36 107.039 105.36Z" fill="white"/>
<path d="M108.719 31.4453V34.8053H112.079V33.1253C112.079 32.6797 111.902 32.2524 111.587 31.9374C111.272 31.6223 110.844 31.4453 110.399 31.4453" fill="white"/>
<path d="M112.079 34.8047H108.719V38.1647H112.079V34.8047Z" fill="white"/>
<path d="M112.079 38.1641H108.719V41.5241H112.079V38.1641Z" fill="white"/>
<path d="M112.079 41.5234H108.719V44.8834H112.079V41.5234Z" fill="white"/>
<path d="M112.079 44.8828H108.719V48.2428H112.079V44.8828Z" fill="white"/>
<path d="M112.086 48.2422H108.726V51.6022H110.406C110.852 51.6022 111.279 51.4252 111.594 51.1101C111.909 50.7951 112.086 50.3678 112.086 49.9222" fill="white"/>
<path d="M112.079 54.9609H108.719V58.3209H112.079V54.9609Z" fill="white"/>
<path d="M112.079 58.3203H108.719V61.6803H112.079V58.3203Z" fill="white"/>
<path d="M112.086 61.6797H108.726V63.3597C108.726 63.8053 108.903 64.2326 109.218 64.5476C109.533 64.8627 109.96 65.0397 110.406 65.0397C110.852 65.0397 111.279 64.8627 111.594 64.5476C111.909 64.2326 112.086 63.8053 112.086 63.3597" fill="white"/>
<path d="M108.719 71.7656H112.079V68.4056H110.399C109.953 68.4056 109.526 68.5826 109.211 68.8977C108.896 69.2127 108.719 69.6401 108.719 70.0856" fill="white"/>
<path d="M112.086 71.7656H108.726V73.4456C108.726 73.8912 108.903 74.3185 109.218 74.6336C109.533 74.9486 109.96 75.1256 110.406 75.1256C110.852 75.1256 111.279 74.9486 111.594 74.6336C111.909 74.3185 112.086 73.8912 112.086 73.4456" fill="white"/>
<path d="M108.719 78.4844V81.8444H112.079V80.1644C112.079 79.7188 111.902 79.2915 111.587 78.9764C111.272 78.6614 110.844 78.4844 110.399 78.4844" fill="white"/>
<path d="M112.079 81.8438H108.719V85.2038H112.079V81.8438Z" fill="white"/>
<path d="M112.086 85.2031H108.726V88.5631H110.406C110.852 88.5631 111.279 88.3861 111.594 88.0711C111.909 87.756 112.086 87.3287 112.086 86.8831" fill="white"/>
<path d="M108.719 95.2812V98.6413H112.079V96.9613C112.079 96.5157 111.902 96.0884 111.587 95.7733C111.272 95.4583 110.844 95.2812 110.399 95.2812" fill="white"/>
<path d="M112.086 102V98.64H108.726V100.32C108.726 100.766 108.903 101.193 109.218 101.508C109.533 101.823 109.96 102 110.406 102" fill="white"/>
<path d="M110.399 115.446C111.327 115.446 112.079 114.694 112.079 113.766C112.079 112.838 111.327 112.086 110.399 112.086C109.471 112.086 108.719 112.838 108.719 113.766C108.719 114.694 109.471 115.446 110.399 115.446Z" fill="white"/>
<path d="M112.086 38.1641V41.5241H115.446V39.8441C115.446 39.3985 115.269 38.9712 114.954 38.6561C114.639 38.3411 114.212 38.1641 113.766 38.1641" fill="white"/>
<path d="M115.446 41.5234H112.086V44.8834H115.446V41.5234Z" fill="white"/>
<path d="M115.445 44.8828H112.085V48.2428H113.765C114.211 48.2428 114.638 48.0658 114.953 47.7507C115.268 47.4357 115.445 47.0084 115.445 46.5628" fill="white"/>
<path d="M112.086 54.9609H115.446V53.2809C115.446 52.8354 115.269 52.4081 114.954 52.093C114.639 51.7779 114.212 51.6009 113.766 51.6009C113.32 51.6009 112.893 51.7779 112.578 52.093C112.263 52.4081 112.086 52.8354 112.086 53.2809" fill="white"/>
<path d="M115.446 54.9609H112.086V58.3209H115.446V54.9609Z" fill="white"/>
<path d="M115.445 58.3203H112.085V61.6803H113.765C114.211 61.6803 114.638 61.5033 114.953 61.1882C115.268 60.8732 115.445 60.4459 115.445 60.0003" fill="white"/>
<path d="M112.086 68.4062V71.7663H113.766C114.212 71.7663 114.639 71.5892 114.954 71.2742C115.269 70.9591 115.446 70.5318 115.446 70.0863C115.446 69.6407 115.269 69.2134 114.954 68.8983C114.639 68.5833 114.212 68.4062 113.766 68.4062" fill="white"/>
<path d="M113.766 78.485C114.694 78.485 115.446 77.7328 115.446 76.805C115.446 75.8772 114.694 75.125 113.766 75.125C112.838 75.125 112.086 75.8772 112.086 76.805C112.086 77.7328 112.838 78.485 113.766 78.485Z" fill="white"/>
<path d="M112.086 91.9219H115.446V90.2419C115.446 89.7963 115.269 89.369 114.954 89.0539C114.639 88.7389 114.212 88.5619 113.766 88.5619C113.32 88.5619 112.893 88.7389 112.578 89.0539C112.263 89.369 112.086 89.7963 112.086 90.2419" fill="white"/>
<path d="M115.445 91.9219H112.085V93.6019C112.085 94.0474 112.262 94.4748 112.577 94.7898C112.892 95.1049 113.32 95.2819 113.765 95.2819C114.211 95.2819 114.638 95.1049 114.953 94.7898C115.268 94.4748 115.445 94.0474 115.445 93.6019" fill="white"/>
<path d="M112.086 98.6406V102.001H113.766C114.212 102.001 114.639 101.824 114.954 101.509C115.269 101.194 115.446 100.766 115.446 100.321C115.446 99.8751 115.269 99.4477 114.954 99.1327C114.639 98.8176 114.212 98.6406 113.766 98.6406" fill="white"/>
<path d="M113.766 108.719C114.694 108.719 115.446 107.967 115.446 107.039C115.446 106.112 114.694 105.359 113.766 105.359C112.838 105.359 112.086 106.112 112.086 107.039C112.086 107.967 112.838 108.719 113.766 108.719Z" fill="white"/>
<path fill-rule="evenodd" clip-rule="evenodd" d="M4.5625 12.9625V19.6825C4.5625 21.9103 5.4475 24.0469 7.0228 25.6222C8.59811 27.1975 10.7347 28.0825 12.9625 28.0825H19.6825C21.9103 28.0825 24.0469 27.1975 25.6222 25.6222C27.1975 24.0469 28.0825 21.9103 28.0825 19.6825V12.9625C28.0825 10.7347 27.1975 8.59811 25.6222 7.0228C24.0469 5.4475 21.9103 4.5625 19.6825 4.5625H12.9625C10.7347 4.5625 8.59811 5.4475 7.0228 7.0228C5.4475 8.59811 4.5625 10.7347 4.5625 12.9625ZM12.9625 7.9225H19.6825C21.0192 7.9225 22.3011 8.4535 23.2463 9.39868C24.1915 10.3439 24.7225 11.6258 24.7225 12.9625V19.6825C24.7225 21.0192 24.1915 22.3011 23.2463 23.2463C22.3011 24.1915 21.0192 24.7225 19.6825 24.7225H12.9625C11.6258 24.7225 10.3439 24.1915 9.39868 23.2463C8.4535 22.3011 7.9225 21.0192 7.9225 19.6825V12.9625C7.9225 11.6258 8.4535 10.3439 9.39868 9.39868C10.3439 8.4535 11.6258 7.9225 12.9625 7.9225Z" fill="white"/>
<path d="M16.3213 21.3613C19.1048 21.3613 21.3613 19.1048 21.3613 16.3213C21.3613 13.5377 19.1048 11.2812 16.3213 11.2812C13.5377 11.2812 11.2812 13.5377 11.2812 16.3213C11.2812 19.1048 13.5377 21.3613 16.3213 21.3613Z" fill="white"/>
<path fill-rule="evenodd" clip-rule="evenodd" d="M107.045 4.5625H100.325C98.0975 4.5625 95.9609 5.44749 94.3856 7.0228C92.8103 8.59811 91.9253 10.7347 91.9253 12.9625V19.6825C91.9253 21.9103 92.8103 24.0469 94.3856 25.6222C95.9609 27.1975 98.0975 28.0825 100.325 28.0825H107.045C109.273 28.0825 111.41 27.1975 112.985 25.6222C114.56 24.0469 115.445 21.9103 115.445 19.6825V12.9625C115.445 10.7347 114.56 8.59811 112.985 7.0228C111.41 5.44749 109.273 4.5625 107.045 4.5625ZM112.085 12.9625V19.6825C112.085 21.0192 111.554 22.3011 110.609 23.2463C109.664 24.1915 108.382 24.7225 107.045 24.7225H100.325C98.9886 24.7225 97.7067 24.1915 96.7615 23.2463C95.8163 22.3011 95.2853 21.0192 95.2853 19.6825V12.9625C95.2853 11.6258 95.8163 10.3439 96.7615 9.39868C97.7067 8.4535 98.9886 7.9225 100.325 7.9225L107.045 7.9225C108.382 7.9225 109.664 8.4535 110.609 9.39868C111.554 10.3439 112.085 11.6258 112.085 12.9625Z" fill="white"/>
<path d="M98.6387 16.3213C98.6387 19.1048 100.895 21.3613 103.679 21.3613C106.462 21.3613 108.719 19.1048 108.719 16.3213C108.719 13.5377 106.462 11.2812 103.679 11.2812C100.895 11.2812 98.6387 13.5377 98.6387 16.3213Z" fill="white"/>
<path fill-rule="evenodd" clip-rule="evenodd" d="M12.9625 115.445H19.6825C21.9103 115.445 24.0469 114.56 25.6222 112.985C27.1975 111.41 28.0825 109.273 28.0825 107.045V100.325C28.0825 98.0975 27.1975 95.9609 25.6222 94.3856C24.0469 92.8103 21.9103 91.9253 19.6825 91.9253H12.9625C10.7347 91.9253 8.59811 92.8103 7.0228 94.3856C5.44749 95.9609 4.5625 98.0975 4.5625 100.325V107.045C4.5625 109.273 5.44749 111.41 7.0228 112.985C8.59811 114.56 10.7347 115.445 12.9625 115.445ZM7.9225 107.045L7.9225 100.325C7.9225 98.9886 8.4535 97.7067 9.39868 96.7615C10.3439 95.8163 11.6258 95.2853 12.9625 95.2853H19.6825C21.0192 95.2853 22.3011 95.8163 23.2463 96.7615C24.1915 97.7067 24.7225 98.9886 24.7225 100.325V107.045C24.7225 108.382 24.1915 109.664 23.2463 110.609C22.3011 111.554 21.0192 112.085 19.6825 112.085H12.9625C11.6258 112.085 10.3439 111.554 9.39868 110.609C8.4535 109.664 7.9225 108.382 7.9225 107.045Z" fill="white"/>
<path d="M21.3613 103.679C21.3613 100.895 19.1048 98.6387 16.3213 98.6387C13.5377 98.6387 11.2812 100.895 11.2812 103.679C11.2812 106.462 13.5377 108.719 16.3213 108.719C19.1048 108.719 21.3613 106.462 21.3613 103.679Z" fill="white"/>
</mask>
<g mask="url(#mask0_7162_16419)">
<path d="M120 0H0V120H120V0Z" fill="#23262E"/>
</g>
</svg>
