<svg width="20" height="20" viewBox="0 0 20 20" fill="none" xmlns="http://www.w3.org/2000/svg">
<path fill-rule="evenodd" clip-rule="evenodd" d="M6.01583 6.01469C8.75794 3.26842 12.1816 2.02938 14.6017 2.66231C12.6806 3.27378 10.0566 5.09749 7.57739 7.5702C5.91055 9.18921 4.47987 11.0345 3.32739 13.052C3.06 13.5461 2.83731 14.0631 2.66198 14.5968C2.02878 12.1885 3.27373 8.76094 6.01583 6.01469ZM16.4959 4.15885C16.5125 3.97773 16.4587 3.79719 16.3457 3.65465C16.2026 3.54267 16.0224 3.48901 15.8413 3.50446C14.5105 3.50446 11.5054 5.16724 8.32865 8.3319C6.73541 9.87495 5.36626 11.6335 4.26111 13.5563C3.39178 15.1922 3.38105 16.0773 3.64399 16.3401C3.7866 16.453 3.96722 16.5068 4.14841 16.4903C5.47922 16.4903 8.48427 14.8275 11.661 11.6628C14.8378 8.49818 16.4959 5.48908 16.4959 4.15885ZM17.3384 5.39783C16.7267 7.30198 14.9022 9.94095 12.423 12.4244C9.94386 14.9079 7.30372 16.7155 5.39336 17.3377C7.8135 17.9706 11.2371 16.7316 13.9792 13.9853C16.7213 11.239 17.9716 7.8169 17.3384 5.39783Z" fill="#23262E" fill-opacity="0.7"/>
</svg>
