<svg width="20" height="20" viewBox="0 0 20 20" fill="none" xmlns="http://www.w3.org/2000/svg">
<path d="M12.5 3.33594L17.5 5.0026V9.16927H15V15.8359C15 16.057 14.9122 16.2689 14.7559 16.4252C14.5996 16.5815 14.3877 16.6693 14.1667 16.6693H5.83333C5.61232 16.6693 5.40036 16.5815 5.24408 16.4252C5.0878 16.2689 5 16.057 5 15.8359V9.16927H2.5V5.0026L7.5 3.33594C7.5 3.99898 7.76339 4.63486 8.23223 5.1037C8.70107 5.57255 9.33696 5.83594 10 5.83594C10.663 5.83594 11.2989 5.57255 11.7678 5.1037C12.2366 4.63486 12.5 3.99898 12.5 3.33594Z" stroke="#23262E" stroke-opacity="0.7" stroke-width="1.5" stroke-linecap="round" stroke-linejoin="round"/>
</svg>
