<svg width="123" height="18" viewBox="0 0 123 18" fill="none" xmlns="http://www.w3.org/2000/svg">
<g clip-path="url(#clip0_7263_1064)">
<path d="M1.07902 3.71406C1.08785 0.055705 1.66672 -0.532417 5.28708 -0.554913C9.35113 -0.581695 10.0663 0.0492771 10.1393 3.71835C10.2309 8.42225 14.3745 10.9076 18.6271 8.50796C19.7118 7.89412 20.585 5.8223 20.4967 4.48858C20.1359 -0.949138 22.326 -0.84951 27.26 -0.369585C28.0732 -0.290312 29.0358 0.98556 29.4174 1.9122C29.8011 2.83884 29.5198 4.02258 29.5689 5.0917C29.6921 7.77843 30.7168 8.79934 33.3789 8.9161C33.6515 8.92896 33.9262 8.94182 34.1965 8.91825C39.8762 8.4244 39.8489 11.3275 39.0248 15.8654C38.4852 18.8349 35.3848 17.8386 33.247 17.8536C31.4712 17.8654 30.3625 16.8927 30.4192 14.9837C30.4268 14.717 30.3996 14.447 30.4181 14.1814C30.8782 7.50954 27.2818 7.75593 22.0698 8.55402C19.678 8.92039 19.7511 11.4036 19.7445 13.4154C19.7304 17.348 19.1308 17.9243 15.1845 17.9083C11.5401 17.8933 10.825 17.1712 10.7912 13.4668C10.752 9.09715 10.0227 8.38583 5.54762 8.34727C1.71141 8.31513 1.06932 7.6488 1.07902 3.71406Z" fill="#23262E" fill-opacity="0.7"/>
<path d="M50.4848 13.9391V4.89965H53.5429V3.30636H45.5234V4.89965H48.5978V13.9391H50.4848ZM57.0077 13.9391V8.36261C57.6746 7.71229 58.1301 7.37087 58.8296 7.37087C59.708 7.37087 60.0821 7.85861 60.0821 9.17552V13.9391H61.9528V8.93165C61.9528 6.91565 61.2045 5.76132 59.4965 5.76132C58.4066 5.76132 57.6096 6.33036 56.9426 6.96442L57.0077 5.4199V2.46094H55.137V13.9391H57.0077ZM67.6298 14.1342C68.6384 14.1342 69.5981 13.7766 70.3626 13.2726L69.7282 12.102C69.1426 12.4759 68.557 12.6873 67.8738 12.6873C66.5888 12.6873 65.6778 11.8744 65.5152 10.4274H70.5904C70.6392 10.2323 70.6717 9.90713 70.6717 9.54945C70.6717 7.3221 69.533 5.76132 67.3696 5.76132C65.4989 5.76132 63.6933 7.35461 63.6933 9.9559C63.6933 12.5897 65.4176 14.1342 67.6298 14.1342ZM69.045 9.24055H65.4989C65.6616 7.90739 66.4749 7.20829 67.4184 7.20829C68.5082 7.20829 69.045 7.97242 69.045 9.24055ZM75.7632 14.1342C78.2845 14.1342 79.7485 12.606 79.7485 10.8501C79.7485 9.35436 78.9352 8.49268 77.6501 7.97242L76.3 7.41965C75.3728 7.04571 74.6733 6.8181 74.6733 6.16778C74.6733 5.56623 75.2101 5.20855 76.0234 5.20855C76.8693 5.20855 77.5362 5.51745 78.2357 6.05397L79.4394 4.54197C78.5285 3.63152 77.2434 3.14378 76.0234 3.14378C73.8274 3.14378 72.2496 4.54197 72.2496 6.29784C72.2496 7.84236 73.2906 8.75281 74.3968 9.19178L75.7632 9.77707C76.6904 10.1673 77.2922 10.3786 77.2922 11.0452C77.2922 11.6793 76.8042 12.0695 75.812 12.0695C74.9336 12.0695 73.9576 11.6142 73.2093 10.9639L71.8266 12.606C72.9165 13.614 74.3805 14.1342 75.7632 14.1342ZM83.7338 16.9306V14.5732L83.6525 13.2888C84.2218 13.8253 84.8725 14.1342 85.572 14.1342C87.3125 14.1342 88.9717 12.5409 88.9717 9.77707C88.9717 7.28958 87.768 5.68003 85.816 5.68003C84.9701 5.68003 84.1568 6.10274 83.5224 6.67178H83.4573L83.2946 5.87513H81.3426V16.9306H83.7338ZM85.0189 12.1833C84.6122 12.1833 84.1568 12.0532 83.7338 11.663V8.36261C84.2056 7.85861 84.6285 7.631 85.1165 7.631C86.0762 7.631 86.5154 8.36261 86.5154 9.80958C86.5154 11.4679 85.8485 12.1833 85.0189 12.1833ZM94.1282 14.1342C96.1616 14.1342 98.0485 12.5897 98.0485 9.90713C98.0485 7.22455 96.1616 5.68003 94.1282 5.68003C92.0786 5.68003 90.1917 7.22455 90.1917 9.90713C90.1917 12.5897 92.0786 14.1342 94.1282 14.1342ZM94.1282 12.1995C93.136 12.1995 92.648 11.3053 92.648 9.90713C92.648 8.50894 93.136 7.61474 94.1282 7.61474C95.1042 7.61474 95.6085 8.50894 95.6085 9.90713C95.6085 11.3053 95.1042 12.1995 94.1282 12.1995ZM102.083 13.9391V9.25681C102.506 8.16752 103.254 7.77732 103.856 7.77732C104.197 7.77732 104.441 7.8261 104.734 7.90739L105.124 5.84261C104.897 5.74507 104.62 5.68003 104.165 5.68003C103.335 5.68003 102.457 6.20029 101.871 7.28958H101.806L101.643 5.87513H99.6914V13.9391H102.083ZM109.272 14.1342C110.053 14.1342 110.639 13.9716 111.062 13.8416L110.688 12.102C110.476 12.1833 110.183 12.2646 109.923 12.2646C109.289 12.2646 108.882 11.8906 108.882 10.9802V7.74481H110.818V5.87513H108.882V3.72907H106.898L106.621 5.87513L105.385 5.97268V7.74481H106.491V11.0127C106.491 12.8824 107.272 14.1342 109.272 14.1342ZM114.771 14.1342C116.934 14.1342 118.089 12.9962 118.089 11.5329C118.089 10.0535 116.934 9.48442 115.909 9.11049C115.08 8.80158 114.331 8.60649 114.331 8.08623C114.331 7.67978 114.624 7.45216 115.242 7.45216C115.812 7.45216 116.365 7.71229 116.95 8.135L118.024 6.70429C117.325 6.18403 116.414 5.68003 115.177 5.68003C113.307 5.68003 112.087 6.70429 112.087 8.20003C112.087 9.53319 113.242 10.1998 114.218 10.5737C115.047 10.8989 115.861 11.1427 115.861 11.6793C115.861 12.102 115.551 12.3621 114.836 12.3621C114.152 12.3621 113.486 12.0695 112.754 11.5167L111.68 13.0124C112.493 13.679 113.713 14.1342 114.771 14.1342Z" fill="#23262E" fill-opacity="0.7"/>
</g>
<defs>
<clipPath id="clip0_7263_1064">
<rect width="122" height="18" fill="white" transform="translate(0.5)"/>
</clipPath>
</defs>
</svg>
