<svg width="20" height="20" viewBox="0 0 20 20" fill="none" xmlns="http://www.w3.org/2000/svg">
<path d="M13.75 16.6693L10 13.7063L6.25 16.6693M6.1 13.7063H13.9C15.1602 13.7063 15.7901 13.7063 16.2715 13.4641C16.6949 13.251 17.0391 12.9111 17.2548 12.493C17.5 12.0176 17.5 11.3953 17.5 10.1508V6.89149C17.5 5.64693 17.5 5.02465 17.2548 4.54929C17.0391 4.13115 16.6949 3.7912 16.2715 3.57814C15.7901 3.33594 15.1602 3.33594 13.9 3.33594H6.1C4.83988 3.33594 4.20982 3.33594 3.72852 3.57814C3.30516 3.7912 2.96095 4.13115 2.74524 4.54929C2.5 5.02465 2.5 5.64693 2.5 6.89149V10.1508C2.5 11.3953 2.5 12.0176 2.74524 12.493C2.96095 12.9111 3.30516 13.251 3.72852 13.4641C4.20982 13.7063 4.83988 13.7063 6.1 13.7063Z" stroke="#23262E" stroke-opacity="0.7" stroke-width="1.5" stroke-linecap="round" stroke-linejoin="round"/>
</svg>
